<ttFont>
<head>
    <!-- Most of this table will be recalculated by the compiler -->
    <tableVersion value="1.0"/>
    <fontRevision value="1.0"/>
    <checkSumAdjustment value="0xf37fe17"/>
    <magicNumber value="0x5f0f3cf5"/>
    <flags value="00000000 00000011"/>
    <unitsPerEm value="2048"/>
    <created value="Tue May 30 14:41:28 2017"/>
    <modified value="Wed May 31 02:54:11 2017"/>
    <xMin value="-494"/>
    <yMin value="-494"/>
    <xMax value="2629"/>
    <yMax value="2092"/>
<macStyle value="00000000 00000010"/>
    <lowestRecPPEM value="3"/>
    <fontDirectionHint value="2"/>
    <indexToLocFormat value="0"/>
    <glyphDataFormat value="0"/>
  </head>
          <CharString index="0">
            -16 rmoveto
            155 99 81 75 37 hvcurveto
            13 hlineto
            -25 -140 rlineto
            212 hlineto
            105 597 rlineto
            8 45 8 51 43 vvcurveto
            206 -140 133 -253 -253 -145 -133 -160 -27 vhcurveto
            213 hlineto
            63 19 64 50 113 hhcurveto
            143 53 -83 -81 -14 -2 -18 -2 -9 hvcurveto
            -11 -69 rlineto
            -270 hlineto
            -264 -151 -115 -192 -14 hvcurveto
            -2 -12 0 -11 -10 vvcurveto
            -188 142 -109 175 vhcurveto
            -94 323 rmoveto
            88 69 76 148 vhcurveto
            232 hlineto
            -22 -121 rlineto
            -111 -21 -111 -79 -124 hhcurveto
            -108 -63 62 85 hvcurveto
            return
          </CharString>
          <CharString index="1">
            rmoveto
            254 164 151 155 24 hvcurveto
            -215 hlineto
            -68 -20 -76 -54 -117 hhcurveto
            -165 -62 109 116 30 4 36 5 20 hvcurveto
            680 hlineto
            6 30 20 111 7 vvcurveto
            225 25 -123 226 -308 hhcurveto
            -244 -194 -139 -264 -45 hvcurveto
            -24 -126 rlineto
            -7 -40 -9 -57 -56 vvcurveto
            -275 185 -137 242 vhcurveto
            288 645 rmoveto
            -464 hlineto
            13 57 rlineto
            146 32 105 67 116 hhcurveto
            155 70 -112 -135 -24 hvcurveto
            -4 -2 -15 -1 -4 vhcurveto
            return
          </CharString>
          <CharString index="2">
            432 835 -107 callgsubr
            return
          </CharString>
          <CharString index="3">
            1058 -103 callgsubr
            return
          </CharString>
          <CharString index="4">
            188 565 -10 callgsubr
            -231 hlineto
            -143 -818 rlineto
            -6 -33 -7 -48 -47 vvcurveto
            -289 224 -156 285 278 215 145 302 54 vhcurveto
            166 944 rlineto
            -232 hlineto
            -160 103 callgsubr
            -124 -85 -154 hhcurveto
            -177 -106 107 159 32 4 40 4 17 hvcurveto
            return
          </CharString>
          <CharString index="5">
            hmoveto
            238 hlineto
            188 372 rlineto
            479 hlineto
            55 -372 76 callsubr
            -229 1365 139 callsubr
            98 -244 rmoveto
            79 -567 rlineto
            -375 hlineto
            281 567 rlineto
            return
          </CharString>
          <CharString index="6">
            rmoveto
            137 callsubr
            43 callsubr
            vhcurveto
            360 hmoveto
            -61 47 -50 63 43 callgsubr
            vhcurveto
            return
          </CharString>
          <CharString index="7">
            81 -27 -102 callsubr
            return
          </CharString>
          <CharString index="8">
            755 rmoveto
            -202 188 -65 117 -37 vhcurveto
            114 -35 94 -28 -94 vvcurveto
            -84 -70 -58 -130 -131 -85 64 77 -13 vhcurveto
            6 -1 8 4 vvcurveto
            -204 hlineto
            -1 -3 0 -11 -5 vvcurveto
            -187 188 -126 238 248 181 115 221 182 -131 71 -157 50 vhcurveto
            -119 39 -111 25 97 vvcurveto
            71 66 60 118 132 67 -80 -63 vhcurveto
            -1 0 -9 -2 vvcurveto
            200 hlineto
            3 0 19 4 vvcurveto
            152 -146 143 -254 -259 -139 -132 -189 vhcurveto
            return
          </CharString>
          <CharString index="9">
            rmoveto
            -73 51 -44 69 69 51 44 73 72 -51 46 -69 -70 -50 -46 -72 vhcurveto
            return
          </CharString>
          <CharString index="10" raw="1">
            db0aabf7 5405fd95 06fb841c faaadb0a
            adf75805 fd9506f8 65fb5815 5c1d
          </CharString>
          <CharString index="11">
            162 207 876 rmoveto
            -43 -217 rlineto
            -6 -36 -6 -73 -44 vvcurveto
            -376 252 -157 284 282 219 154 259 46 vhcurveto
            58 326 138 callsubr
            -31 -177 rlineto
            313 hlineto
            -27 -147 rlineto
            -136 -26 -140 -76 -148 hhcurveto
            -177 -142 107 228 42 8 72 5 31 hvcurveto
            37 179 rlineto
            224 44 123 128 196 hhcurveto
            211 79 -136 -89 6 hvcurveto
            -9 0 -10 -8 vvcurveto
            221 hlineto
            2 6 0 23 6 vvcurveto
            197 -165 225 -351 -309 -221 -187 -329 -62 vhcurveto
            return
          </CharString>
          <CharString index="12">
            hlineto
            -241 -1365 rlineto
            return
          </CharString>
          <CharString index="13">
            91 340 hmoveto
            92 518 rlineto
            216 hlineto
            21 28 1 1 15 hvcurveto
            167 -520 76 callsubr
            -184 552 163 50 128 129 23 193 rlinecurve
            4 24 1 30 23 vvcurveto
            220 -144 145 -269 vhcurveto
            -489 hlineto
            -241 -1366 rlineto
            674 1172 rmoveto
            160 74 -70 -115 -18 -2 -23 -3 -17 hvcurveto
            -121 -17 -82 -100 -219 hhcurveto
            -232 hlineto
            84 464 rlineto
            return
          </CharString>
          <CharString index="14">
            rmoveto
            124 84 116 133 9 hvcurveto
            -130 hlineto
            -65 -8 -28 -43 -47 -77 -11 142 -156 hhcurveto
            -127 -78 -111 -138 -11 hvcurveto
            131 hlineto
            65 6 26 43 50 82 11 -142 150 hhcurveto
            return
          </CharString>
          <CharString index="15">
            111 callsubr
            106 604 rlineto
            162 29 90 122 159 hhcurveto
            126 55 -84 -109 -39 -7 -50 -5 -29 hvcurveto
            -102 -577 52 callgsubr
            100 564 rlineto
            10 56 11 67 62 vvcurveto
            176 -101 149 -221 -154 -101 -75 -109 -54 vhcurveto
            -14 hlineto
            30 168 rlineto
            -219 hlineto
            return
          </CharString>
          <CharString index="16">
            rlineto
            -228 -95 callsubr
            return
          </CharString>
          <CharString index="17">
            128 636 -26 rmoveto
            299 219 184 336 63 hvcurveto
            41 210 rlineto
            6 39 4 72 42 vvcurveto
            364 -235 171 -291 -328 -158 -191 -197 -39 vhcurveto
            -2 -6 -4 -24 -1 -9 rrcurveto
            220 hlineto
            117 24 96 99 177 hhcurveto
            171 139 -99 -221 -20 -1 -29 -3 -26 hvcurveto
            0 -525 vlineto
            -31 -187 rlineto
            528 hlineto
            -3 -20 -91 -1 -3 vhcurveto
            -201 -44 -113 -119 -187 hhcurveto
            -189 -90 124 109 -9 hvcurveto
            -1 7 0 9 6 vvcurveto
            -220 hlineto
            -2 -11 0 -19 -9 vvcurveto
            -215 186 -209 321 vhcurveto
            return
          </CharString>
          <CharString index="18">
            704 1201 -27 rmoveto
            336 197 115 callsubr
            hvcurveto
            38 204 rlineto
            11 59 3 61 42 vvcurveto
            336 -221 198 -320 -289 -221 -175 -315 -65 vhcurveto
            -1 -7 -16 -86 -2 -7 rrcurveto
            -220 -37 callsubr
            229 hlineto
            107 601 52 callgsubr
            -4 0 -4 -1 -4 vhcurveto
            -3 -34 -2 -34 -32 vvcurveto
            -328 227 -188 299 vhcurveto
            -248 863 rmoveto
            250 47 129 101 168 hhcurveto
            198 119 98 callgsubr
            -8 75 callgsubr
            -120 -120 -182 hhcurveto
            -203 -116 131 callsubr
            6 44 8 47 hvcurveto
            return
          </CharString>
          <CharString index="19">
            rmoveto
            118 74 103 112 6 hvcurveto
            -128 hlineto
            -57 -6 -23 -43 -45 -70 -13 114 -149 hhcurveto
            -118 -70 -99 -113 -8 hvcurveto
            128 hlineto
            56 6 23 37 46 79 10 -110 140 hhcurveto
            return
          </CharString>
          <CharString index="20">
            -117 503 -19 rmoveto
            239 187 130 271 46 hvcurveto
            24 132 rlineto
            9 51 4 54 42 vvcurveto
            255 -169 160 -262 -221 -178 -112 -205 -31 vhcurveto
            216 hlineto
            70 17 71 54 114 hhcurveto
            148 75 -93 -151 -9 0 -8 -1 -10 hvcurveto
            -390 hlineto
            -27 -155 rlineto
            396 hlineto
            -3 -10 -48 -2 vvcurveto
            -152 -30 -100 -83 -126 hhcurveto
            -139 -66 90 76 1 0 8 0 hvcurveto
            -213 hlineto
            -2 0 -10 -3 vvcurveto
            -203 167 -145 250 vhcurveto
            return
          </CharString>
          <CharString index="21">
            hmoveto
            -85 callgsubr
            return
          </CharString>
          <CharString index="22">
            130 779 173 rmoveto
            15 hlineto
            -31 -173 rlineto
            212 hlineto
            159 894 rlineto
            19 hlineto
            177 99 109 171 30 hvcurveto
            27 157 94 callsubr
            -24 -136 rlineto
            -83 -16 -31 -54 -95 hhcurveto
            -193 hlineto
            -106 -600 rlineto
            -162 -28 -87 -120 -158 hhcurveto
            -125 -66 69 115 40 6 49 -14 callgsubr
            -223 hlineto
            -103 -570 rlineto
            -10 -53 -10 -64 -64 vvcurveto
            -188 119 -135 210 155 104 86 103 49 vhcurveto
            return
          </CharString>
          <CharString index="23">
            hmoveto
            -40 callsubr
            -220 hlineto
            -175 -968 rlineto
            -12 hlineto
            -463 968 rlineto
            -202 -95 callsubr
            220 hlineto
            174 970 rlineto
            11 hlineto
            468 -970 rlineto
            return
          </CharString>
          <CharString index="24">
            339 687 -26 rmoveto
            278 214 145 302 54 hvcurveto
            139 779 rlineto
            40 hlineto
            174 105 124 160 27 hvcurveto
            22 134 rlineto
            -183 hlineto
            -19 -115 rlineto
            -84 -16 -37 -54 -95 81 callsubr
            -161 103 callgsubr
            -123 -85 -155 hhcurveto
            -176 -107 107 159 32 4 40 3 85 callgsubr
            -230 65 callgsubr
            -48 -47 vvcurveto
            -289 223 -156 286 vhcurveto
            return
          </CharString>
          <CharString index="25">
            -15 -80 callgsubr
            return
          </CharString>
          <CharString index="26">
            rmoveto
            604 824 rlineto
            -256 hlineto
            -425 -605 rlineto
            -12 hlineto
            -220 605 rlineto
            -243 hlineto
            323 -829 -96 -536 110 callsubr
            return
          </CharString>
          <CharString index="27">
            rmoveto
            -159 -27 102 -121 208 hhcurveto
            225 125 117 163 26 hvcurveto
            -142 hlineto
            -92 -16 -71 -64 -128 hhcurveto
            -125 -51 64 92 16 hvcurveto
            return
          </CharString>
          <CharString index="28">
            rmoveto
            153 hlineto
            158 89 -82 -119 -140 -98 -99 -169 -174 -98 98 95 6 0 4 1 7 hvcurveto
            -214 hlineto
            -2 -12 -2 -16 -18 vvcurveto
            -214 197 -150 286 284 220 158 270 149 -97 117 -154 33 vhcurveto
            2 14 rlineto
            150 13 152 115 196 vvcurveto
            244 -211 111 -232 -274 -158 -149 -206 -35 vhcurveto
            219 hlineto
            80 21 69 81 152 hhcurveto
            132 100 -63 -119 -127 -96 -82 -172 hvcurveto
            -166 hlineto
            return
          </CharString>
          <CharString index="29">
            rmoveto
            -9 26 callsubr
            96 -69 181 61 57 7 8 26 44 callgsubr
            -23 -43 -4 -40 hhcurveto
            -79 -35 30 72 23 4 27 14 73 hvcurveto
            183 1040 87 callgsubr
          </CharString>
          <CharString index="30">
            rmoveto
            -54 -46 44 53 55 46 43 54 55 44 -43 -55 -54 -44 -43 -55 hvcurveto
            -2 -107 rmoveto
            111 93 89 115 113 -88 90 -113 -112 -92 -87 -116 -112 87 -92 114 hvcurveto
            endchar
          </CharString>
          <CharString index="31">
            -387 94 125 callsubr
            102 572 rlineto
            165 29 88 131 179 hhcurveto
            34 46 -8 -10 23 hvcurveto
            43 209 rlineto
            5 -18 -39 10 -41 hhcurveto
            -153 -100 -93 -99 -36 hvcurveto
            -14 hlineto
            32 176 rlineto
            -212 hlineto
            return
          </CharString>
          <CharString index="32">
            rmoveto
            -67 53 -54 66 65 53 54 67 66 -53 55 -65 -66 -53 -55 -66 vhcurveto
            endchar
          </CharString>
          <CharString index="33">
            85 478 rlineto
            249 hlineto
            341 180 156 258 38 hvcurveto
            5 32 137 callgsubr
            221 -148 159 -270 vhcurveto
            -469 hlineto
            -241 -1366 rlineto
            662 1176 rmoveto
            162 75 -83 -122 -19 -2 -27 -4 -20 hvcurveto
            -123 -17 -86 -106 -221 81 callsubr
            90 500 rlineto
            return
          </CharString>
          <CharString index="34">
            rmoveto
            177 hlineto
            185 239 rlineto
            9 hlineto
            101 -239 rlineto
            176 hlineto
            -176 364 rlineto
            -171 hlineto
            return
          </CharString>
          <CharString index="35">
            rmoveto
            162 hlineto
            333 354 rlineto
            -208 hlineto
            endchar
          </CharString>
          <CharString index="36">
            rmoveto
            171 hlineto
            335 322 rlineto
            -211 hlineto
            endchar
          </CharString>
          <CharString index="37">
            15 675 -16 rmoveto
            244 149 164 240 41 hvcurveto
            30 157 rlineto
            8 46 1 50 38 vvcurveto
            242 -143 151 -216 -181 -86 -110 -83 -35 vhcurveto
            -15 hlineto
            101 558 86 callgsubr
            -255 125 callgsubr
            222 hlineto
            37 205 rlineto
            12 hlineto
            -112 25 118 -109 167 hhcurveto
            -270 450 rmoveto
            9 2 24 4 23 vhcurveto
            20 123 rlineto
            162 28 96 110 144 hhcurveto
            142 83 -90 -146 -25 0 -39 -4 -24 hvcurveto
            -23 -126 rlineto
            -145 -27 -91 -111 -143 hhcurveto
            -114 -117 90 165 hvcurveto
            return
          </CharString>
          <CharString index="38">
            rmoveto
            -68 53 -53 65 66 53 53 68 68 -53 53 -66 -65 -53 -53 -68 vhcurveto
            endchar
          </CharString>
          <CharString index="39">
            -8 callgsubr
            endchar
          </CharString>
          <CharString index="40">
            317 1054 hmoveto
            223 20 callsubr
            -671 -521 rmoveto
            119 68 -54 -94 hvcurveto
            -3 -1 -3 -2 vvcurveto
            -114 -4 -78 -89 -162 hhcurveto
            -156 hlineto
            65 359 rlineto
            -316 -537 rmoveto
            408 hlineto
            297 127 callsubr
            10 10 vvcurveto
            184 -132 127 -251 vhcurveto
            -142 hlineto
            61 343 86 callgsubr
            return
          </CharString>
          <CharString index="41">
            813 hlineto
            32 183 rlineto
            -540 hlineto
            3 14 636 684 31 177 rlineto
            -807 hlineto
            -32 -179 rlineto
            542 hlineto
            -3 -14 -645 -695 rlineto
            return
          </CharString>
          <CharString index="42">
            rmoveto
            9 22 27 7 49 hhcurveto
            53 42 -33 -37 -43 -26 -32 -88 -43 hvcurveto
            58 -93 rlineto
            125 50 69 77 108 vvcurveto
            90 -78 69 -121 -59 -30 -6 -11 -27 vhcurveto
            endchar
          </CharString>
          <CharString index="43">
            -75 callgsubr
            endchar
          </CharString>
          <CharString index="44">
            1365 rmoveto
            -229 13 callgsubr
            80 444 194 175 318 -619 133 callgsubr
            -397 753 631 612 rlineto
            -282 hlineto
            -665 -632 rlineto
            -14 hlineto
            return
          </CharString>
          <CharString index="45">
            rmoveto
            199 hlineto
            176 151 rlineto
            14 hlineto
            119 -151 rlineto
            193 hlineto
            -210 261 rlineto
            -190 hlineto
            return
          </CharString>
          <CharString index="46">
            rmoveto
            126 104 252 -508 76 callsubr
            -319 626 496 432 rlineto
            -281 hlineto
            -458 -407 rlineto
            -14 hlineto
            138 786 rlineto
            -219 hlineto
            -253 -1437 111 callgsubr
            return
          </CharString>
          <CharString index="47">
            52 callgsubr
            80 455 rlineto
            180 hlineto
            -2 -1 -4 -3 vvcurveto
            -1 -23 -1 -23 1 -23 rrcurveto
            -252 12 187 -141 235 hhcurveto
            -183 647 rmoveto
            168 30 90 90 126 hhcurveto
            142 83 37 callsubr
            -164 -28 -83 -104 -136 hhcurveto
            -145 -83 104 143 41 5 31 5 30 hvcurveto
            return
          </CharString>
          <CharString index="48">
            986 hlineto
            34 198 rlineto
            -706 hlineto
            2 15 852 981 26 171 rlineto
            -955 91 callsubr
            678 hlineto
            -2 -15 -853 -985 rlineto
            return
          </CharString>
          <CharString index="49">
            339 -47 callsubr
            return
          </CharString>
          <CharString index="50">
            rmoveto
            181 hlineto
            177 160 rlineto
            9 hlineto
            113 -160 rlineto
            170 hlineto
            -198 273 rlineto
            -151 hlineto
            225 63 rmoveto
            105 87 96 128 10 hvcurveto
            -124 hlineto
            -67 -8 -28 -38 -41 -74 -9 135 -147 hhcurveto
            -107 -82 -90 -131 -11 hvcurveto
            123 hlineto
            64 7 27 35 45 81 5 -132 141 hhcurveto
            endchar
          </CharString>
          <CharString index="51">
            41 callgsubr
            215 260 rmoveto
            -11 -110 rlineto
            8 23 29 4 25 hhcurveto
            71 32 -27 -47 -42 -33 -35 -62 -22 hvcurveto
            50 -97 rlineto
            112 38 67 82 96 vvcurveto
            110 -81 54 -136 -32 -34 -5 -7 -20 vhcurveto
            endchar
          </CharString>
          <CharString index="52">
            222 -25 callsubr
            -209 hlineto
            -812 -968 rlineto
            -11 hlineto
            175 968 rlineto
            -222 -95 callsubr
            209 hlineto
            813 970 rlineto
            10 hlineto
            return
          </CharString>
          <CharString index="53">
            704 rmoveto
            170 67 -95 -116 -18 -3 -28 -4 -20 hvcurveto
            -122 -16 -86 -106 -221 81 callsubr
            91 505 rlineto
            -353 -704 rmoveto
            477 hlineto
            331 188 147 268 39 hvcurveto
            5 30 3 35 28 vvcurveto
            224 -148 162 -270 66 callgsubr
            -228 hlineto
            return
          </CharString>
          <CharString index="54">
            599 533 rmoveto
            -118 -67 54 95 110 77 89 166 hvcurveto
            166 hlineto
            -63 -348 rlineto
            -93 -533 rmoveto
            84 callgsubr
            -419 hlineto
            -312 -153 -173 -210 -117 67 -104 111 -43 hvcurveto
            -359 -411 rlineto
            258 hlineto
            318 364 rlineto
            0 143 vlineto
            return
          </CharString>
          <CharString index="55">
            -54 callsubr
            1105 -1365 53 callsubr
            return
          </CharString>
          <CharString index="56">
            rmoveto
            204 hlineto
            172 136 rlineto
            12 hlineto
            122 -136 rlineto
            192 hlineto
            -215 239 rlineto
            -186 hlineto
            return
          </CharString>
          <CharString index="57">
            rmoveto
            2 13 2 16 11 vvcurveto
            143 -130 97 -161 -195 -143 -113 -167 -21 vhcurveto
            143 hlineto
            87 16 78 60 102 hhcurveto
            114 51 -64 -79 hvcurveto
            -4 vlineto
            return
          </CharString>
          <CharString index="58">
            rmoveto
            189 -136 129 -199 -200 -148 -135 -184 -160 100 -111 143 49 38 10 20 26 vhcurveto
            15 hlineto
            -5 -9 -37 -39 -9 -11 -31 -35 -194 -183 -55 -50 rrcurveto
            274 hlineto
            35 32 128 126 23 28 rrcurveto
            128 140 55 116 127 vvcurveto
            -341 -140 rmoveto
            -85 -62 60 83 84 62 61 85 86 62 -61 -84 -83 -62 -60 -86 hvcurveto
            endchar
          </CharString>
          <CharString index="59">
            -44 544 -16 rmoveto
            258 190 155 348 57 hvcurveto
            15 87 7 96 95 vvcurveto
            114 -14 109 -24 70 vhcurveto
            -212 hlineto
            24 -91 8 -92 -88 vvcurveto
            -100 -7 -87 -21 -115 vhcurveto
            -227 -41 -97 -82 -137 hhcurveto
            -135 -58 65 113 28 5 45 5 34 hvcurveto
            105 597 rlineto
            -218 hlineto
            -105 -589 rlineto
            -8 -43 -3 -45 -39 vvcurveto
            -227 137 -131 269 vhcurveto
            return
          </CharString>
          <CharString index="60">
            hmoveto
            241 1365 -91 callsubr
            return
          </CharString>
          <CharString index="61">
            rmoveto
            -140 126 -98 178 214 146 141 203 151 -92 99 -142 -72 -64 -25 -45 -43 vhcurveto
            -12 hlineto
            52 195 rlineto
            379 hlineto
            27 169 rlineto
            -541 hlineto
            -117 -485 rlineto
            193 hlineto
            31 38 41 16 43 hhcurveto
            66 45 -51 -74 -93 -63 -63 -90 -70 -50 42 60 hvcurveto
            2 0 10 1 vvcurveto
            -186 hlineto
            -4 -11 -2 -13 -22 vvcurveto
            endchar
          </CharString>
          <CharString index="62">
            80 callgsubr
            402 hlineto
            32 202 rlineto
            -1030 hlineto
            -34 -202 122 callgsubr
            -207 87 callsubr
            return
          </CharString>
          <CharString index="63">
            rmoveto
            -621 hlineto
            -24 -124 rlineto
            621 hlineto
            endchar
          </CharString>
          <CharString index="64">
            rmoveto
            10 hlineto
            -77 17 93 -65 115 hhcurveto
            178 160 125 258 46 hvcurveto
            8 49 rlineto
            7 38 1 50 41 vvcurveto
            343 -272 279 -447 -402 -322 -250 -434 -78 vhcurveto
            -10 -55 rlineto
            -9 -52 -7 -62 -54 vvcurveto
            -455 318 -230 426 80 76 10 12 36 vhcurveto
            24 139 rlineto
            -12 -39 -77 -8 -77 hhcurveto
            -348 -259 173 381 47 5 55 8 45 hvcurveto
            8 42 rlineto
            357 66 263 208 318 hhcurveto
            317 248 -183 -307 -33 -2 -45 -5 -29 hvcurveto
            -5 -32 rlineto
            -203 -32 -92 -78 -92 hhcurveto
            -59 -43 36 58 11 1 14 2 10 hvcurveto
            82 469 rlineto
            -162 hlineto
            -23 -131 rlineto
            -8 hlineto
            77 -7 -72 79 -123 hhcurveto
            -158 -113 -112 -189 -35 hvcurveto
            -16 -87 rlineto
            -5 -31 -3 -36 -28 vvcurveto
            -161 105 -108 151 127 75 66 75 31 vhcurveto
            -306 222 rmoveto
            12 58 rlineto
            128 26 63 56 76 hhcurveto
            92 49 -72 -78 -16 -2 -17 -3 -19 hvcurveto
            -14 -82 rlineto
            -127 -23 -64 -50 -77 hhcurveto
            -96 -46 66 82 20 2 26 5 25 hvcurveto
            endchar
          </CharString>
          <CharString index="65">
            70 callsubr
            -224 hlineto
            -75 -429 rlineto
            -8 -6 -95 -65 -131 hhcurveto
            -134 -55 73 130 24 hvcurveto
            51 299 51 callsubr
            -49 -276 rlineto
            -258 -45 120 -160 239 hhcurveto
            141 100 55 14 18 hvcurveto
            11 hlineto
            -78 -433 rlineto
            return
          </CharString>
          <CharString index="66">
            240 hlineto
            -259 525 438 533 rlineto
            -252 hlineto
            -292 -387 rlineto
            -10 hlineto
            -169 387 rlineto
            -243 hlineto
            255 -527 -423 -531 rlineto
            245 hlineto
            290 380 rlineto
            8 hlineto
            return
          </CharString>
          <CharString index="67">
            241 -39 callgsubr
            return
          </CharString>
          <CharString index="68">
            rmoveto
            -297 -59 -36 -174 -125 hhcurveto
            -25 -19 7 0 hvcurveto
            -34 -203 rlineto
            0 26 -14 46 285 55 240 428 87 vhcurveto
            46 223 rlineto
            331 90 callsubr
            186 1058 rlineto
            -755 hlineto
            endchar
          </CharString>
          <CharString index="69">
            rmoveto
            203 hlineto
            160 118 rlineto
            9 hlineto
            112 -118 rlineto
            193 hlineto
            -211 196 rlineto
            -175 hlineto
            216 43 rmoveto
            107 70 94 104 6 hvcurveto
            -118 hlineto
            -58 -5 -22 -31 -42 -65 -15 95 -135 hhcurveto
            -104 -67 -86 -93 -8 hvcurveto
            117 hlineto
            32 5 19 38 45 67 14 -95 131 hhcurveto
            endchar
          </CharString>
          <CharString index="70">
            hlineto
            99 563 -91 callsubr
            return
          </CharString>
          <CharString index="71">
            224 20 callsubr
            -76 -423 rlineto
            -442 9 callgsubr
            443 hlineto
            endchar
          </CharString>
          <CharString index="72">
            rmoveto
            -196 354 rlineto
            -211 hlineto
            250 -354 rlineto
            endchar
          </CharString>
          <CharString index="73">
            524 698 -52 callsubr
            return
          </CharString>
          <CharString index="74">
            833 627 rmoveto
            -464 hlineto
            13 57 rlineto
            146 32 105 67 116 hhcurveto
            155 70 -112 -135 -24 hvcurveto
            -4 -2 -15 -1 -4 vhcurveto
            -373 -1112 rmoveto
            96 callsubr
            33 108 rlineto
            0 vlineto
            241 9 155 149 24 149 rrcurveto
            -215 hlineto
            -68 -20 -76 -54 -117 hhcurveto
            -165 -62 109 116 30 4 36 5 20 hvcurveto
            681 hlineto
            6 30 19 111 7 vvcurveto
            225 24 -122 226 -308 hhcurveto
            -244 -194 -139 -264 -45 hvcurveto
            -24 -126 rlineto
            -7 -40 -9 -57 -56 vvcurveto
            -227 126 -134 182 -40 vhcurveto
            -44 -148 -9 -76 rlineto
            52 hlineto
            74 56 -13 -51 -1 0 -2 -1 -1 hvcurveto
            15 callgsubr
            return
          </CharString>
          <CharString index="75">
            rmoveto
            119 74 103 112 6 hvcurveto
            -128 hlineto
            -57 -6 -23 -43 -45 -70 -13 114 -148 hhcurveto
            -120 -69 -99 -113 -8 hvcurveto
            128 hlineto
            56 6 23 37 46 79 9 110 callgsubr
          </CharString>
          <CharString index="76">
            rmoveto
            106 315 rlineto
            -177 hlineto
            -81 -315 rlineto
            endchar
          </CharString>
          <CharString index="77">
            189 164 674 rmoveto
            -11 -62 -2 -66 -57 vvcurveto
            -85 15 -76 29 -65 vhcurveto
            -129 -122 93 -103 112 107 rlineto
            -112 95 148 -60 173 hhcurveto
            -51 callgsubr
            60 hvcurveto
            38 204 rlineto
            11 59 3 61 42 vvcurveto
            90 -16 81 -31 69 vhcurveto
            134 125 -98 98 -111 -105 rlineto
            114 -96 -151 62 -182 121 callsubr
            -185 -331 -59 hvcurveto
            906 -52 rmoveto
            -14 -3 -67 -6 -31 vhcurveto
            -31 -166 rlineto
            -245 -44 -124 -119 -187 hhcurveto
            -127 -94 46 81 -54 hvcurveto
            663 594 rlineto
            5 -22 2 -33 -24 vvcurveto
            -51 231 rmoveto
            -666 -596 rlineto
            -5 22 -3 25 25 vvcurveto
            1 52 5 38 7 40 34 174 rcurveline
            250 47 134 101 172 hhcurveto
            125 95 -48 -83 54 hvcurveto
            return
          </CharString>
          <CharString index="78">
            rmoveto
            -181 322 rlineto
            -199 hlineto
            223 -322 rlineto
            endchar
          </CharString>
          <CharString index="79">
            82 callgsubr
            233 93 callsubr
          </CharString>
          <CharString index="80">
            -37 131 552 rmoveto
            -9 -44 -3 -48 -52 vvcurveto
            -76 14 -65 27 -56 vhcurveto
            -136 -121 83 -100 127 114 rlineto
            -79 80 116 -43 134 hhcurveto
            274 167 157 252 48 hvcurveto
            23 120 rlineto
            8 41 3 45 41 vvcurveto
            71 -13 64 -24 56 vhcurveto
            141 126 -89 100 -125 -113 rlineto
            86 -81 -121 48 -145 hhcurveto
            -244 -189 -153 -254 -46 hvcurveto
            221 -38 rmoveto
            176 30 98 82 127 hhcurveto
            88 68 -37 -62 39 hvcurveto
            -474 -411 rlineto
            -4 16 -1 18 18 vvcurveto
            36 4 25 5 27 vhcurveto
            38 -261 rmoveto
            468 402 rlineto
            1 -10 1 -10 -12 vvcurveto
            -9 0 -40 -4 -22 vhcurveto
            -21 -119 rlineto
            -171 -29 -90 -97 -137 hhcurveto
            -84 -65 32 56 -40 hvcurveto
            return
          </CharString>
          <CharString index="81">
            -20 callgsubr
            224 hlineto
            return
          </CharString>
          <CharString index="82">
            hlineto
            -40 callsubr
            return
          </CharString>
          <CharString index="83">
            -537 280 1058 rmoveto
            -129 -733 rlineto
            -9 26 callsubr
            98 -69 190 56 callgsubr
            -48 -4 -41 hhcurveto
            -86 -39 30 72 26 5 32 14 78 hvcurveto
            114 648 rlineto
            return
          </CharString>
          <CharString index="84">
            -4 callsubr
            -154 -312 rmoveto
            43 callgsubr
            -61 47 -50 63 hvcurveto
            -359 hmoveto
            43 callsubr
            137 callsubr
            hvcurveto
            endchar
          </CharString>
          <CharString index="85" raw="1">
            15a7f738 05fb5206 3c64abd0 cab4cd96
            9e1ffb40 06807a5a 38301afb 22e83bf7
            431ef845 fc84860a  
          </CharString>
          <CharString index="86">
            219 hlineto
            81 460 rlineto
            75 hlineto
            249 -460 76 callsubr
            -303 539 467 519 139 callsubr
            -366 -426 rlineto
            -70 hlineto
            76 426 rlineto
            -219 hlineto
            -76 -426 rlineto
            -65 hlineto
            -226 426 58 callsubr
            265 -475 -493 -583 rlineto
            255 hlineto
            395 460 rlineto
            71 hlineto
            return
          </CharString>
          <CharString index="87">
            rmoveto
            63 37 -59 -96 -140 -54 -91 -84 -62 -38 58 96 137 56 95 82 hvcurveto
            -309 -239 rmoveto
            -187 103 -122 159 191 127 160 243 183 -108 125 -156 -190 -126 -160 -242 vhcurveto
            -490 935 rmoveto
            62 38 -59 -96 -140 -54 -91 -84 -63 -38 57 96 138 56 95 83 hvcurveto
            -310 -239 rmoveto
            -187 103 -122 160 191 127 160 243 182 -108 126 -157 -189 -127 -161 -241 vhcurveto
            115 -985 rmoveto
            9 callsubr
            endchar
          </CharString>
          <CharString index="88">
            68 67 -51 48 return
          </CharString>
          <CharString index="89">
            hmoveto
            500 hlineto
            35 206 rlineto
            -229 11 hlineto
            156 94 79 118 33 178 20 107 rcurveline
            11 57 8 80 43 vvcurveto
            297 -187 201 -353 -313 -230 -184 -318 -56 vhcurveto
            -29 -163 rlineto
            -8 -48 -4 -54 -36 vvcurveto
            -166 64 -127 94 -79 vhcurveto
            -1 -11 rlineto
            -237 hlineto
            -35 -206 rlineto
            471 hlineto
            40 235 rlineto
            -104 53 -66 129 157 vvcurveto
            38 3 43 9 48 vhcurveto
            25 141 rlineto
            215 39 125 127 202 hhcurveto
            195 124 -105 -198 -52 -5 -44 -14 -74 hvcurveto
            -13 -77 -39 -210 -111 -144 -161 -56 rlinecurve
            return
          </CharString>
          <CharString index="90">
            rmoveto
            177 -136 -102 66 -141 hhcurveto
            -226 -151 -160 -240 -239 150 -158 227 143 107 67 173 129 hvcurveto
            -173 130 106 -67 144 hhcurveto
            227 150 158 239 240 -151 160 -227 -140 -102 -66 -177 -137 hvcurveto
            -554 -157 rmoveto
            122 72 80 112 79 62 -47 -155 122 vhcurveto
            -147 -107 -70 -52 -88 hhcurveto
            -110 -72 77 122 hvcurveto
            1109 hmoveto
            -122 -72 -77 -111 -87 -70 52 147 -107 vhcurveto
            155 122 62 47 79 hhcurveto
            111 73 -80 -122 hvcurveto
            endchar
          </CharString>
          <CharString index="91">
            rmoveto
            152 99 135 172 9 hvcurveto
            -156 hlineto
            -63 -10 -34 -63 -71 hhcurveto
            -57 -40 41 44 -45 hvcurveto
            53 -54 -62 57 -101 hhcurveto
            -160 -96 -145 -168 -4 hvcurveto
            156 hlineto
            74 11 43 return
          </CharString>
          <CharString index="92">
            rmoveto
            148 147 87 177 26 217 22 179 -31 196 -69 120 rrcurveto
            -196 hlineto
            63 -156 21 -164 -19 -180 -25 -205 -102 -222 -118 -109 rrcurveto
            endchar
          </CharString>
          <CharString index="93">
            1392 rmoveto
            -284 -204 -215 -273 -241 173 -177 231 134 125 72 86 44 hvcurveto
            13 hlineto
            -293 -39 -116 -178 -187 hhcurveto
            -124 -101 67 104 -3 hvcurveto
            -209 hlineto
            -1 -8 0 -9 1 -13 rrcurveto
            -183 5 175 -155 244 hhcurveto
            269 176 173 302 82 hvcurveto
            44 127 15 126 157 vvcurveto
            330 -168 201 -295 vhcurveto
            -18 -729 rmoveto
            -144 -99 105 144 160 108 128 149 144 101 -112 -153 -151 -108 -121 -151 hvcurveto
            endchar
          </CharString>
          <CharString index="94">
            183 -126 137 -172 -91 -78 -39 -46 -42 vhcurveto
            -25 hlineto
            151 38 155 103 177 hhcurveto
            14 17 -1 -1 12 hvcurveto
            23 125 rlineto
            2 -19 -26 2 -26 hhcurveto
            -300 -237 -206 -325 -273 165 -153 199 193 149 142 199 hvcurveto
            return
          </CharString>
          <CharString index="95">
            622 rmoveto
            87 -2 rlineto
            147 -4 116 -81 -142 vvcurveto
            -133 -112 -89 -148 -158 -93 98 93 vhcurveto
            4 0 11 5 vvcurveto
            -216 hlineto
            -2 -11 -2 -14 -22 vvcurveto
            -190 171 -170 294 293 204 167 241 165 -92 119 -159 33 vhcurveto
            2 14 rlineto
            149 14 153 112 207 vvcurveto
            229 -202 116 -230 -257 -162 -146 -189 -20 vhcurveto
            219 hlineto
            76 18 67 70 127 hhcurveto
            125 99 -69 -123 -145 -137 -63 -151 -7 -54 0 2 -39 hvcurveto
            endchar
          </CharString>
          <CharString index="96">
            hmoveto
            47 callsubr
            -101 -572 rlineto
            -8 -11 -128 -69 -169 hhcurveto
            -187 -79 91 179 32 hvcurveto
            68 379 rlineto
            -229 119 callsubr
            -322 -56 157 -167 307 hhcurveto
            169 126 60 10 18 hvcurveto
            10 hlineto
            -104 -586 rlineto
            return
          </CharString>
          <CharString index="97">
            -26 rmoveto
            289 202 221 278 239 -174 172 -231 -137 -113 -68 -88 -53 hvcurveto
            -15 hlineto
            273 33 133 193 196 hhcurveto
            117 89 -72 -93 9 hvcurveto
            206 hlineto
            1 5 0 8 12 vvcurveto
            190 -4 -177 146 -225 hhcurveto
            -237 -183 -133 -237 -105 hvcurveto
            -58 -127 -35 -179 -183 vvcurveto
            -338 174 -219 298 vhcurveto
            17 737 rmoveto
            148 103 -104 -145 -170 -106 -124 -156 -144 -106 118 153 152 110 120 151 hvcurveto
            endchar
          </CharString>
          <CharString index="98">
            hmoveto
            -8 callsubr
            return
          </CharString>
          <CharString index="99">
            84 callgsubr
            -223 hlineto
            6 311 rmoveto
            -78 58 -56 85 89 63 57 82 79 -57 57 -89 -86 -63 -57 -84 vhcurveto
            return
          </CharString>
          <CharString index="100">
            rmoveto
            -224 hlineto
            -108 -612 rlineto
            -159 -28 -80 -117 -149 hhcurveto
            -122 -44 84 106 39 6 49 4 27 hvcurveto
            104 583 rlineto
            -219 hlineto
            -109 -612 rlineto
            -169 -30 -82 -107 -130 hhcurveto
            -115 -47 79 113 37 6 49 4 27 hvcurveto
            103 583 86 callgsubr
            -100 -570 rlineto
            -9 -54 -12 -71 -61 vvcurveto
            -176 98 -142 211 186 90 112 83 39 vhcurveto
            12 hlineto
            -110 35 95 -85 158 hhcurveto
            163 92 95 96 40 hvcurveto
            14 hlineto
            -31 -175 rlineto
            217 hlineto
            endchar
          </CharString>
          <CharString index="101">
            267 451 -10 callgsubr
            -102 -566 rlineto
            -164 hlineto
            -35 -209 rlineto
            165 hlineto
            -106 -590 rlineto
            425 hlineto
            425 257 198 351 66 hvcurveto
            3 12 22 123 1 12 rrcurveto
            8 48 2 58 37 vvcurveto
            312 -187 214 -355 vhcurveto
            -230 -200 82 callgsubr
            240 140 -107 -234 -31 -2 -54 -6 -35 hvcurveto
            -1 -12 -20 -109 -3 -10 rrcurveto
            -255 -50 -203 -118 -277 hhcurveto
            -151 hlineto
            72 390 rlineto
            269 hlineto
            35 209 rlineto
            -269 hlineto
            endchar
          </CharString>
          <CharString index="102">
            -106 callsubr
            endchar
          </CharString>
          <CharString index="103">
            rmoveto
            -606 hlineto
            -24 -124 rlineto
            606 hlineto
            return
          </CharString>
          <CharString index="104">
            -126 331 293 rmoveto
            108 93 56 136 vhcurveto
            122 hlineto
            28 161 rlineto
            -122 hlineto
            -95 -61 43 73 96 74 65 127 138 42 -75 -82 -5 hvcurveto
            211 hlineto
            198 19 -126 140 -269 hhcurveto
            -248 -177 -137 -198 -93 62 -73 90 -19 hvcurveto
            -2 -10 rlineto
            -139 -19 -118 -103 -155 vvcurveto
            -176 144 -112 248 278 150 155 174 35 vhcurveto
            -210 hlineto
            -81 -29 -69 -67 -138 hhcurveto
            -121 -68 46 85 hvcurveto
            return
          </CharString>
          <CharString index="105">
            -49 446 hmoveto
            -46 -155 -10 99 callsubr
            -49 hhcurveto
            -36 -55 7 11 -35 hvcurveto
            -19 79 callsubr
            -16 72 hhcurveto
            96 callsubr
            39 127 rlineto
            369 hlineto
            33 200 rlineto
            -620 hlineto
            74 403 rlineto
            585 hlineto
            31 189 rlineto
            -584 hlineto
            69 373 rlineto
            615 hlineto
            34 200 rlineto
            -844 -95 callsubr
            return
          </CharString>
          <CharString index="106">
            -53 -1 -55 -11 -50 hhcurveto
            -35 -55 7 11 -35 hvcurveto
            -19 139 callgsubr
            25 59 -16 return
          </CharString>
          <CharString index="107">
            rmoveto
            -124 -9 -72 -62 -26 -150 -50 -280 rcurveline
            -121 -21 -55 -81 -173 hhcurveto
            -42 hlineto
            -29 -174 rlineto
            77 hlineto
            232 165 63 280 49 hvcurveto
            43 236 rlineto
            139 25 49 61 133 hhcurveto
            38 223 rlineto
            -113 -36 45 96 6 hvcurveto
            20 50 196 116 vvcurveto
            186 14 -99 88 -239 hhcurveto
            -85 hlineto
            -29 -173 rlineto
            41 hlineto
            161 29 -39 -117 -7 hvcurveto
            -14 -9 -60 -41 -212 vhcurveto
            -25 -141 62 -79 106 -10 rrcurveto
            endchar
          </CharString>
          <CharString index="108">
            101 179 111 callsubr
            104 593 rlineto
            201 36 105 94 139 hhcurveto
            109 72 -64 -134 -32 -5 -42 -7 -41 hvcurveto
            -166 -933 rlineto
            225 hlineto
            169 953 rlineto
            8 47 7 55 49 vvcurveto
            212 -134 116 -188 -154 -99 -60 -133 -76 vhcurveto
            -14 hlineto
            -1 3 -1 3 3 vvcurveto
            114 -12 -68 63 -126 hhcurveto
            -39 -30 -4 -6 -26 hvcurveto
            -30 -176 rlineto
            4 16 14 1 10 hhcurveto
            57 22 -27 -51 -14 -2 -13 -3 -20 hvcurveto
            return
          </CharString>
          <CharString index="109">
            -148 699 40 callsubr
            return
          </CharString>
          <CharString index="110">
            -125 510 -18 rmoveto
            254 174 139 194 17 hvcurveto
            -205 hlineto
            -85 -16 -89 -75 -132 hhcurveto
            -122 -74 52 85 -1 hvcurveto
            -1 78 64 48 123 18 12 2 35 7 13 1 15 1 35 7 13 2 245 38 137 109 -3 180 rrcurveto
            180 -2 -143 114 -240 hhcurveto
            -253 -146 -138 -182 -19 hvcurveto
            200 hlineto
            83 12 75 71 117 hhcurveto
            107 72 -51 -75 1 hvcurveto
            2 -86 -59 return
          </CharString>
          <CharString index="111">
            -41 callsubr
            endchar
          </CharString>
          <CharString index="112" raw="1">
            9afa79fa 1f15a5f7 2b05fded 0671fb2b
            05f8e0fc 0615f70b ce552d88 8b888a89
            1ffb0787 3d33fb35 1bfb3006 ccf7fb05
            fbd0fcad 15f82b06 f7bef713 0a94961a
            f74cfb19 f713fb8e 1efb2206 f713f966
            e11d0e   
          </CharString>
          <CharString index="113">
            0 callgsubr
            254 1437 -32 callgsubr
            return
          </CharString>
          <CharString index="114" raw="1">
            15acf759 0586674d 885c1bfb 8dfb45f7
            0cf77baf 90bf93b4 1fa2f71c 05f7a2bb
            f746f71c f7821bec df7c74cb 1facf757
            05a54721 9b211bfb f0fb99fb 5bfc1144
            1f70fb23 05815787 4c5a1afb dbf7a7fb
            61f7e2bc c98e91b4 1e0e 
          </CharString>
          <CharString index="115" raw="1">
            15371d0e   
          </CharString>
          <CharString index="116">
            210 hlineto
            437 672 485 693 99 callgsubr
            -428 -653 rlineto
            return
          </CharString>
          <CharString index="117">
            rmoveto
            -4 -18 -3 -21 -20 vvcurveto
            -134 112 -96 160 175 141 112 177 22 vhcurveto
            -138 hlineto
            -101 -19 -70 -57 -92 hhcurveto
            -96 -52 58 75 123 callsubr
          </CharString>
          <CharString index="118">
            rmoveto
            -1 -10 -1 -9 -8 vvcurveto
            -117 119 -96 159 189 136 105 135 23 vhcurveto
            -136 hlineto
            -67 -16 -75 -55 -100 hhcurveto
            -104 -56 51 68 -1 hvcurveto
            3 vlineto
            31 122 rmoveto
            4 10 18 3 23 hhcurveto
            57 31 -16 -36 -26 -25 -28 -30 -8 hvcurveto
            52 -71 rlineto
            72 21 58 69 68 vvcurveto
            78 -63 43 -119 -23 -25 -3 -5 -17 vhcurveto
            endchar
          </CharString>
          <CharString index="119">
            786 180 rmoveto
            -456 hlineto
            2 10 64 69 36 119 65 286 rlinecurve
            49 214 rlineto
            365 hlineto
            -797 -1163 rmoveto
            50 285 rlineto
            781 56 callsubr
            -162 hlineto
            156 878 rlineto
            -785 hlineto
            -84 -392 -73 -324 -38 -111 -95 -51 rlinecurve
            -88 hlineto
            -80 -465 rlineto
            endchar
          </CharString>
          <CharString index="120" raw="1">
            f77106f8 affab6c5 0afc0bfd cf057f06
            2af9cfc5 0af7101c fa7f15f7 7206d5f8
            3bea1d0b   
          </CharString>
          <CharString index="121">
            rmoveto
            167 hlineto
            337 322 99 callgsubr
            65 -322 rmoveto
            167 hlineto
            337 322 99 callgsubr
            endchar
          </CharString>
          <CharString index="122" raw="1">
            06eff8ce 05fb7898 1df700f8 f2050b
          </CharString>
          <CharString index="123">
            -10 callgsubr
            -240 -293 -250 -311 -201 -295 -29 -198 rcurveline
            647 hlineto
            -48 -268 rlineto
            215 hlineto
            48 268 rlineto
            201 hlineto
            31 193 rlineto
            -200 hlineto
            157 904 rlineto
            -801 -904 rmoveto
            2 11 162 228 202 251 179 221 rlinecurve
            14 hlineto
            -129 -711 rlineto
            endchar
          </CharString>
          <CharString index="124">
            -100 callsubr
            -289 378 -51 callsubr
            return
          </CharString>
          <CharString index="125">
            rmoveto
            -27 -168 rlineto
            396 hlineto
            -2 -10 -454 -691 rlineto
            231 hlineto
            451 704 26 165 rlineto
            endchar
          </CharString>
          <CharString index="126">
            rmoveto
            -214 hlineto
            -162 -117 rlineto
            -9 hlineto
            -113 117 rlineto
            -200 hlineto
            219 -198 rlineto
            178 hlineto
            -294 -279 rmoveto
            43 callsubr
            137 callsubr
            hvcurveto
            359 hmoveto
            43 callgsubr
            -61 47 -50 63 hvcurveto
            endchar
          </CharString>
          <CharString index="127">
            hlineto
            186 -45 callgsubr
            return
          </CharString>
          <CharString index="128">
            -93 callsubr
            -180 358 -72 callsubr
          </CharString>
          <CharString index="129">
            hmoveto
            102 562 rlineto
            563 hlineto
            33 195 rlineto
            -563 hlineto
            74 409 rlineto
            614 hlineto
            34 199 rlineto
            -842 hlineto
            -243 -1365 rlineto
            return
          </CharString>
          <CharString index="130">
            rmoveto
            -65 50 -50 64 64 51 50 65 64 -51 51 -64 -64 -50 -51 -64 vhcurveto
            468 330 41 callsubr
          </CharString>
          <CharString index="131" raw="1">
            c51df757 06dbf865 050b 
          </CharString>
          <CharString index="132" raw="1">
            15fb5cfb 35f739f7 5df75cf7 35f739f7
            5cf75bf7 35fb39fb 5cfb5dfb 35fb39fb
            5b1ff72b 04f70cec edf709f7 082aedfb
            0cfb0d2a 29fb08fb 09ec29f7 0d1f0e
          </CharString>
          <CharString index="133">
            -47 -5 -43 -30 vvcurveto
            -144 return
          </CharString>
          <CharString index="134">
            698 rmoveto
            10 hlineto
            182 -592 rlineto
            148 hlineto
            392 592 rlineto
            10 hlineto
            -124 -698 rlineto
            212 48 callsubr
            -254 hlineto
            -449 -693 rlineto
            -9 hlineto
            -202 693 rlineto
            -248 -20 callgsubr
            208 hlineto
            endchar
          </CharString>
          <CharString index="135">
            1245 32 callsubr
            191 308 rmoveto
            69 51 48 68 67 -51 85 callsubr
            -67 -68 51 -48 68 hvcurveto
            385 hmoveto
            68 51 48 -19 callsubr
            -68 -69 -50 -48 -67 -68 50 -48 69 hvcurveto
            endchar
          </CharString>
          <CharString index="136">
            1366 rmoveto
            -240 hlineto
            -632 -899 -35 -202 rlineto
            625 hlineto
            -49 -265 rlineto
            214 hlineto
            49 265 rlineto
            186 hlineto
            33 201 rlineto
            -190 hlineto
            65 360 99 callgsubr
            -63 -357 rlineto
            -373 hlineto
            2 10 rlineto
            endchar
          </CharString>
          <CharString index="137">
            -29 144 704 112 callgsubr
            310 170 223 368 70 vhcurveto
            18 98 rlineto
            12 65 4 69 59 vvcurveto
            345 -160 192 -276 -305 -187 -227 -365 -62 vhcurveto
            return
          </CharString>
          <CharString index="138">
            rmoveto
            -82 63 -58 88 94 65 60 84 84 -63 59 -92 -90 -65 -60 -87 vhcurveto
            -104 -821 rmoveto
            -82 63 -59 88 94 64 60 84 85 -63 59 -92 -89 -65 -61 -86 vhcurveto
            691 321 rmoveto
            32 180 rlineto
            -988 71 callsubr
            endchar
          </CharString>
          <CharString index="139">
            rmoveto
            26 131 rlineto
            128 callgsubr
            return
          </CharString>
          <CharString index="140">
            rmoveto
            30 180 rlineto
            -876 hlineto
            -30 -180 rlineto
            326 90 callsubr
            156 878 rlineto
            endchar
          </CharString>
          <CharString index="141">
            73 callsubr
            -880 -26 callsubr
            156 878 rlineto
            432 hlineto
            endchar
          </CharString>
          <CharString index="142">
            rmoveto
            156 hlineto
            325 353 rlineto
            -199 hlineto
            87 -642 32 callsubr
            endchar
          </CharString>
          <CharString index="143">
            -233 -98 callsubr
            return
          </CharString>
          <CharString index="144">
            38 callsubr
            -119 rlineto
            return
          </CharString>
          <CharString index="145">
            -102 -138 -18 -1 -46 -4 -28 hvcurveto
            -21 return
          </CharString>
          <CharString index="146">
            rmoveto
            -206 hlineto
            -170 -131 rlineto
            -9 hlineto
            -121 131 rlineto
            -192 hlineto
            220 -222 rlineto
            178 hlineto
            -144 345 rmoveto
            -56 45 -46 58 57 45 46 56 55 -45 46 -57 -58 -45 -46 -55 vhcurveto
            endchar
          </CharString>
          <CharString index="147">
            hmoveto
            -41 callsubr
            return
          </CharString>
          <CharString index="148">
            -4 callsubr
            endchar
          </CharString>
          <CharString index="149">
            vvcurveto
            -343 163 -183 276 304 179 236 355 67 vhcurveto
            18 98 rlineto
            12 65 4 69 59 vvcurveto
            351 -167 185 -274 -300 -188 -226 -365 -61 vhcurveto
            endchar
          </CharString>
          <CharString index="150">
            63 48 50 61 60 124 callgsubr
            -60 return
          </CharString>
          <CharString index="151">
            72 callgsubr
            -37 -40 5 6 -19 hvcurveto
            -33 -190 rlineto
            -8 25 50 -6 58 hhcurveto
            endchar
          </CharString>
          <CharString index="152">
            rmoveto
            83 -159 52 -180 -292 vvcurveto
            -597 -269 -387 -146 -134 vhcurveto
            208 hlineto
            203 178 232 394 562 vvcurveto
            232 -70 239 -83 144 vhcurveto
            endchar
          </CharString>
          <CharString index="153">
            -94 71 -64 87 92 124 callsubr
            -92 -87 -71 -65 -97 vhcurveto
            return
          </CharString>
          <CharString index="154">
            -40 callsubr
            -228 hlineto
            return
          </CharString>
          <CharString index="155">
            hlineto
            67 callgsubr
            return
          </CharString>
          <CharString index="156">
            rmoveto
            893 -318 34 199 -586 189 1 9 658 200 34 201 -1011 -340 rlineto
            831 -730 rmoveto
            30 178 rlineto
            -962 hlineto
            -30 -178 rlineto
            endchar
          </CharString>
          <CharString index="157">
            320 177 226 245 206 -142 171 -277 -127 -99 -47 -55 -63 hvcurveto
            return
          </CharString>
          <CharString index="158">
            rlineto
            -222 hlineto
            return
          </CharString>
          <CharString index="159">
            rmoveto
            34 195 rlineto
            -397 hlineto
            74 417 rlineto
            -195 hlineto
            -75 -417 rlineto
            -396 hlineto
            -33 -195 rlineto
            397 hlineto
            -77 -432 rlineto
            195 hlineto
            77 432 rlineto
            endchar
          </CharString>
          <CharString index="160">
            rmoveto
            241 1365 -91 callsubr
            return
          </CharString>
          <CharString index="161">
            -612 rmoveto
            159 27 -102 121 -208 hhcurveto
            -225 -125 -117 -163 -26 hvcurveto
            142 hlineto
            92 16 71 64 128 hhcurveto
            125 51 -64 -92 -16 hvcurveto
            endchar
          </CharString>
          <CharString index="162">
            -627 106 hmoveto
            6 callsubr
            -300 -1670 -98 callsubr
            return
          </CharString>
          <CharString index="163">
            58 callgsubr
            194 hlineto
            80 465 rlineto
            return
          </CharString>
          <CharString index="164">
            rmoveto
            151 27 -84 145 -203 hhcurveto
            -212 -107 -147 -149 -26 hvcurveto
            142 hlineto
            92 15 63 76 113 hhcurveto
            112 34 -76 -92 -15 hvcurveto
            -482 return
          </CharString>
          <CharString index="165">
            rlineto
            -231 hlineto
            return
          </CharString>
          <CharString index="166">
            rmoveto
            178 hlineto
            354 322 95 callgsubr
            -548 -121 rmoveto
            -67 52 -54 66 66 52 54 67 66 -52 55 -66 -66 -52 -55 -66 vhcurveto
            endchar
          </CharString>
          <CharString index="167">
            rmoveto
            182 150 152 184 184 -150 152 -182 -181 -150 -152 -184 -184 150 -152 181 hvcurveto
            endchar
          </CharString>
          <CharString index="168">
            -40 callsubr
            -1062 13 callgsubr
            207 1163 rlineto
            605 hlineto
            -207 87 callsubr
            endchar
          </CharString>
          <CharString index="169">
            rmoveto
            36 189 rlineto
            -620 hlineto
            -36 -189 rlineto
            endchar
          </CharString>
          <CharString index="170" raw="1">
            23f7061d 6dfb41f7 060a0b 
          </CharString>
          <CharString index="171">
            91 124 callsubr
            -91 -88 -70 -65 -97 vhcurveto
            return
          </CharString>
          <CharString index="172">
            hlineto
            -70 -17 -72 -54 -116 hhcurveto
            return
          </CharString>
          <CharString index="173">
            hvcurveto
            -34 -185 rlineto
            -245 -44 return
          </CharString>
          <CharString index="174">
            -161 1500 -51 callsubr
            return
          </CharString>
          <CharString index="175">
            rmoveto
            -309 -1749 rlineto
            498 hlineto
            30 173 rlineto
            -287 hlineto
            250 1403 rlineto
            286 hlineto
            29 173 rlineto
            endchar
          </CharString>
          <CharString index="176">
            rmoveto
            28 195 rlineto
            -886 hlineto
            -31 -195 rlineto
            955 415 rmoveto
            33 195 rlineto
            -885 hlineto
            -33 -195 rlineto
            endchar
          </CharString>
          <CharString index="177">
            186 1058 rlineto
            return
          </CharString>
          <CharString index="178">
            hlineto
            104 callgsubr
            return
          </CharString>
          <CharString index="179">
            rmoveto
            -727 511 -40 -222 528 -350 -3 -12 -649 -337 -40 -239 904 486 rlineto
            endchar
          </CharString>
          <CharString index="180">
            0 callgsubr
            70 callsubr
            return
          </CharString>
          <CharString index="181">
            -489 rlineto
            152 hlineto
            145 489 rlineto
            return
          </CharString>
          <CharString index="182">
            -10 callgsubr
            -229 hlineto
            return
          </CharString>
          <CharString index="183">
            rlineto
            240 hlineto
            return
          </CharString>
          <CharString index="184">
            rmoveto
            -242 -152 -170 -229 -43 hvcurveto
            -33 -156 rlineto
            -9 -43 -2 -47 -45 vvcurveto
            -243 155 return
          </CharString>
          <CharString index="185">
            -224 hlineto
            -192 -1089 rlineto
            -96 92 callgsubr
            return
          </CharString>
          <CharString index="186">
            139 callgsubr
            26 58 return
          </CharString>
          <CharString index="187" raw="1">
            15f99406 0b  
          </CharString>
          <CharString index="188">
            hhcurveto
            -222 hlineto
            return
          </CharString>
          <CharString index="189" raw="1">
            5afb0aa8 231bfbbb fb42fb0c fb91601f
            85688b68 63fb060b  
          </CharString>
          <CharString index="190">
            hvcurveto
            -20 79 callsubr
            return
          </CharString>
          <CharString index="191">
            hlineto
            -207 -1164 rlineto
            return
          </CharString>
          <CharString index="192">
            48 -69 -68 -51 -48 return
          </CharString>
          <CharString index="193">
            hlineto
            -35 -208 rlineto
            endchar
          </CharString>
          <CharString index="194">
            -1163 rlineto
            return
          </CharString>
          <CharString index="195">
            69 51 48 67 68 122 callsubr
            -50 -48 -68 return
          </CharString>
          <CharString index="196" raw="1">
            0659fbb2 05f76006 dff87c05 0b
          </CharString>
          <CharString index="197">
            115 callgsubr
            224 hlineto
            return
          </CharString>
          <CharString index="198">
            hlineto
            -34 -198 rlineto
            return
          </CharString>
          <CharString index="199">
            rlineto
            171 hlineto
            return
          </CharString>
          <CharString index="200">
            375 51 callsubr
            endchar
          </CharString>
          <CharString index="201">
            rlineto
            -184 hlineto
            return
          </CharString>
          <CharString index="202">
            rlineto
            -228 hlineto
            -207 87 callsubr
            -614 98 callsubr
            return
          </CharString>
          <CharString index="203">
            141 104 66 126 7 hvcurveto
            5 1 4 118 callsubr
            return
          </CharString>
          <CharString index="204">
            -55 -11 -49 126 callgsubr
            return
          </CharString>
          <CharString index="205">
            hlineto
            80 callgsubr
            return
          </CharString>
          <CharString index="206">
            -76 120 callsubr
            -13 -51 70 callgsubr
            -53 -1 -55 -11 return
          </CharString>
          <CharString index="207">
            rmoveto
            -189 1720 rlineto
            -202 hlineto
            189 -1720 rlineto
            endchar
          </CharString>
          <CharString index="208" raw="1">
            fb2bfb14 fb0efb2e 716dfb44 18fa3806
            0e   
          </CharString>
          <CharString index="209">
            -180 rmoveto
            0 callgsubr
            return
          </CharString>
          <CharString index="210">
            rlineto
            -194 hlineto
            return
          </CharString>
          <CharString index="211">
            -63 -48 -50 -60 137 callsubr
            63 48 50 61 60 -48 50 -63 hvcurveto
            return
          </CharString>
          <CharString index="212">
            1058 rmoveto
            78 callsubr
            return
          </CharString>
          <CharString index="213">
            hvcurveto
            384 hmoveto
            69 return
          </CharString>
          <CharString index="214">
            131 hhcurveto
            148 86 38 callsubr
            return
          </CharString>
          <CharString index="215" raw="1">
            abacf476 f6f41aac 8cac90ac 1ef723a2
            0b   
          </CharString>
          <CharString index="216" raw="1">
            15f7b61c 066d05fb 2506fbb6 1cf99305
            0b   
          </CharString>
          <CharString index="217">
            rlineto
            229 hlineto
            return
          </CharString>
          <CharString index="218">
            hmoveto
            0 callgsubr
            return
          </CharString>
          <CharString index="219">
            -258 -1452 rlineto
            214 hlineto
            258 1452 rlineto
            return
          </CharString>
          <CharString index="220">
            rmoveto
            6 callsubr
            endchar
          </CharString>
          <CharString index="221" raw="1">
            05879dbe 87ae1b0b  
          </CharString>
          <CharString index="222">
            191 328 60 return
          </CharString>
          <CharString index="223">
            rmoveto
            34 199 rlineto
            -959 hlineto
            -34 -199 rlineto
            endchar
          </CharString>
          <CharString index="224" raw="1">
            15fd8dfb c971fb2c f98cf7c7 050b
          </CharString>
          <CharString index="225">
            4 vvcurveto
            98 -75 53 -104 2 vhcurveto
            return
          </CharString>
          <CharString index="226">
            hlineto
            -64 -360 rlineto
            return
          </CharString>
          <CharString index="227">
            rlineto
            52 hlineto
            74 56 return
          </CharString>
          <CharString index="228">
            hhcurveto
            -302 -228 return
          </CharString>
          <CharString index="229">
            -51 48 -69 -68 return
          </CharString>
          <CharString index="230">
            11 1 7 1 7 hvcurveto
            endchar
          </CharString>
          <CharString index="231">
            70 64 94 96 -70 66 return
          </CharString>
          <CharString index="232">
            hmoveto
            223 hlineto
            return
          </CharString>
          <CharString index="233" raw="1">
            9daaf744 05fb1306 6cfb440b 
          </CharString>
          <CharString index="234">
            155 158 217 11 hvcurveto
            2 9 1 return
          </CharString>
          <CharString index="235">
            196 120 callgsubr
            return
          </CharString>
          <CharString index="236">
            5 1 4 4 vvcurveto
            return
          </CharString>
          <CharString index="237">
            hlineto
            107 -175 rlineto
            return
          </CharString>
          <CharString index="238">
            133 201 55 return
          </CharString>
          <CharString index="239">
            1163 rlineto
            return
          </CharString>
          <CharString index="240">
            -299 -219 -184 -336 -63 vhcurveto
            return
          </CharString>
          <CharString index="241">
            98 callsubr
            -228 hlineto
            return
          </CharString>
          <CharString index="242">
            260 308 225 -131 176 return
          </CharString>
          <CharString index="243">
            rlineto
            -633 hlineto
            return
          </CharString>
          <CharString index="244">
            -61 48 -50 63 return
          </CharString>
          <CharString index="245">
            rlineto
            -532 hlineto
            return
          </CharString>
          <CharString index="246">
            rlineto
            -263 hlineto
            return
          </CharString>
        <CharString name=".notdef">
          848 -55 -494 120 callgsubr
          45 244 rlineto
          -1848 hlineto
          32 128 callsubr
          45 244 rlineto
          -1848 hlineto
          33 196 rmoveto
          1848 hlineto
          44 51 callgsubr
          33 128 callsubr
          45 51 callgsubr
          endchar
        </CharString>
        <CharString name=".null">
          endchar
        </CharString>
        <CharString name="A">
          -100 callsubr
          endchar
        </CharString>
        <CharString name="AE">
          665 1012 -37 callgsubr
          endchar
        </CharString>
        <CharString name="AEacute">
          665 1012 -37 callgsubr
          516 1144 -71 callsubr
        </CharString>
        <CharString name="AEmacron">
          665 1012 -37 callgsubr
          961 1265 -44 callsubr
        </CharString>
        <CharString name="Aacute">
          -100 callsubr
          -43 386 -71 callsubr
        </CharString>
        <CharString name="Abreve">
          -100 callsubr
          -220 635 -69 callgsubr
          endchar
        </CharString>
        <CharString name="Abreveacute">
          -100 callsubr
          -215 610 -4 callgsubr
          75 13 rmoveto
          151 hlineto
          218 200 rlineto
          -189 hlineto
          endchar
        </CharString>
        <CharString name="Abrevedotbelow">
          -100 callsubr
          -220 635 -69 callgsubr
          -274 -1989 -93 callgsubr
        </CharString>
        <CharString name="Abrevegrave">
          -100 callsubr
          -215 610 -4 callgsubr
          253 13 rmoveto
          -110 200 94 callsubr
          146 -200 rlineto
          endchar
        </CharString>
        <CharString name="Abrevehookabove">
          -100 callsubr
          -210 594 11 callsubr
        </CharString>
        <CharString name="Abrevetilde">
          -100 callsubr
          -196 581 8 callgsubr
        </CharString>
        <CharString name="Acaron">
          -100 callsubr
          465 614 -83 callgsubr
          endchar
        </CharString>
        <CharString name="Acircumflex">
          -100 callsubr
          -286 373 -64 callsubr
        </CharString>
        <CharString name="Acircumflexacute">
          17 callsubr
          295 -42 rmoveto
          155 hlineto
          271 238 rlineto
          -205 hlineto
          endchar
        </CharString>
        <CharString name="Acircumflexdotbelow">
          -100 callsubr
          -286 373 -75 callgsubr
          -358 -1966 -93 callgsubr
        </CharString>
        <CharString name="Acircumflexgrave">
          17 callsubr
          544 -45 rmoveto
          -176 241 103 callsubr
          216 -241 rlineto
          endchar
        </CharString>
        <CharString name="Acircumflexhookabove">
          17 callsubr
          241 105 rmoveto
          3 11 15 2 24 hhcurveto
          61 31 -20 -40 -26 -24 -28 -33 -11 hvcurveto
          58 -75 rlineto
          71 25 56 63 74 vvcurveto
          94 -70 40 -120 -23 -27 -4 -4 -16 vhcurveto
          endchar
        </CharString>
        <CharString name="Acircumflextilde">
          -100 callsubr
          -274 378 -38 callsubr
        </CharString>
        <CharString name="Acyrillic">
          101 -17 -102 callsubr
          endchar
        </CharString>
        <CharString name="Adblgrave">
          -100 callsubr
          -19 386 -35 callgsubr
          endchar
        </CharString>
        <CharString name="Adieresis">
          -100 callsubr
          -208 457 -101 callsubr
          endchar
        </CharString>
        <CharString name="Adieresismacron">
          -100 callsubr
          440 782 -23 callsubr
        </CharString>
        <CharString name="Adotaccent">
          -100 callsubr
          -32 481 -75 callsubr
        </CharString>
        <CharString name="Adotbelow">
          -100 callsubr
          -352 -1354 -93 callgsubr
        </CharString>
        <CharString name="Adotmacron">
          -100 callsubr
          -35 452 23 callsubr
        </CharString>
        <CharString name="Agrave">
          -100 callsubr
          150 386 -29 callsubr
        </CharString>
        <CharString name="Ahookabove">
          -100 callsubr
          -43 594 -61 callgsubr
          endchar
        </CharString>
        <CharString name="Ainvertedbreve">
          -100 callsubr
          397 357 -50 callsubr
          endchar
        </CharString>
        <CharString name="Alphagreek">
          -100 callsubr
          endchar
        </CharString>
        <CharString name="Alphatonosgreek">
          152 44 -102 callsubr
          -640 -131 -28 callsubr
        </CharString>
        <CharString name="Amacron">
          -100 callsubr
          402 507 -44 callsubr
        </CharString>
        <CharString name="Aogonek">
          81 1001 -372 rmoveto
          55 57 11 9 20 hvcurveto
          24 137 rlineto
          -5 -21 -36 -3 -22 hhcurveto
          -67 -36 32 53 1 hvcurveto
          2 92 88 57 101 27 -223 1327 rcurveline
          -263 hlineto
          -708 -1365 rlineto
          238 hlineto
          188 372 rlineto
          479 hlineto
          49 -337 rlineto
          31 -5 hlineto
          -74 -34 -83 -63 -4 -121 rrcurveto
          -111 -6 87 -73 123 hhcurveto
          -222 1493 rmoveto
          79 -567 rlineto
          -375 hlineto
          281 567 rlineto
          endchar
        </CharString>
        <CharString name="Aring">
          -100 callsubr
          99 454 7 callgsubr
        </CharString>
        <CharString name="Aringacute">
          -100 callsubr
          36 688 33 callgsubr
        </CharString>
        <CharString name="Aringbelow">
          -100 callsubr
          -235 -1508 -77 callsubr
        </CharString>
        <CharString name="Atilde">
          -100 callsubr
          191 337 -88 callsubr
          endchar
        </CharString>
        <CharString name="B">
          98 111 -77 callgsubr
          endchar
        </CharString>
        <CharString name="Bdotaccent">
          98 111 -77 callgsubr
          344 1419 -75 callsubr
        </CharString>
        <CharString name="Bdotbelow">
          98 111 -77 callgsubr
          54 -416 -93 callgsubr
        </CharString>
        <CharString name="Becyrillic">
          60 599 hmoveto
          341 181 146 247 37 hvcurveto
          4 30 3 33 26 vvcurveto
          208 -148 148 -270 vhcurveto
          -249 hlineto
          59 327 rlineto
          625 hlineto
          34 200 rlineto
          -852 -95 callsubr
          261 199 rmoveto
          82 451 rlineto
          236 hlineto
          163 71 -76 -107 -17 -2 -25 -4 -18 hvcurveto
          -111 -15 -85 -97 -221 hhcurveto
          endchar
        </CharString>
        <CharString name="Betagreek">
          98 111 -77 callgsubr
          endchar
        </CharString>
        <CharString name="Blinebelow">
          98 111 -77 callgsubr
          455 -517 -78 callgsubr
        </CharString>
        <CharString name="C">
          108 434 833 -90 callgsubr
          endchar
        </CharString>
        <CharString name="Cacute">
          108 434 833 -90 callgsubr
          333 847 -71 callsubr
        </CharString>
        <CharString name="Ccaron">
          108 434 833 -90 callgsubr
          841 1075 -83 callgsubr
          endchar
        </CharString>
        <CharString name="Ccedilla">
          108 602 -68 callgsubr
          endchar
        </CharString>
        <CharString name="Ccedillaacute">
          108 602 -68 callgsubr
          130 1992 -71 callsubr
        </CharString>
        <CharString name="Ccircumflex">
          108 434 833 -90 callgsubr
          82 834 -64 callsubr
        </CharString>
        <CharString name="Cdotaccent">
          108 434 833 -90 callgsubr
          344 942 -75 callsubr
        </CharString>
        <CharString name="Checyrillic">
          191 1134 -11 callsubr
          endchar
        </CharString>
        <CharString name="Chigreek">
          53 1118 1365 -55 callgsubr
          endchar
        </CharString>
        <CharString name="D">
          169 -95 callgsubr
          endchar
        </CharString>
        <CharString name="Dcaron">
          169 -95 callgsubr
          869 1535 -83 callgsubr
          endchar
        </CharString>
        <CharString name="Dcircumflexbelow">
          169 -95 callgsubr
          -207 -604 -62 callsubr
          endchar
        </CharString>
        <CharString name="Dcommaaccent">
          169 -95 callgsubr
          186 -652 -31 callsubr
        </CharString>
        <CharString name="Dcroat">
          -6 callsubr
        </CharString>
        <CharString name="Ddotaccent">
          169 -95 callgsubr
          372 1402 -75 callsubr
        </CharString>
        <CharString name="Ddotbelow">
          169 -95 callgsubr
          61 -433 -93 callgsubr
        </CharString>
        <CharString name="Decyrillic">
          261 964 202 rmoveto
          -588 hlineto
          2 11 105 110 47 208 69 325 rlinecurve
          65 308 rlineto
          472 hlineto
          -1005 -1450 rmoveto
          50 286 rlineto
          946 24 callgsubr
          -174 98 callsubr
          -908 hlineto
          -97 -479 -87 -416 -44 -180 -138 -88 rlinecurve
          -112 hlineto
          -84 -488 rlineto
          endchar
        </CharString>
        <CharString name="Deltagreek">
          83 1172 133 rmoveto
          -226 1233 rlineto
          -264 hlineto
          -661 -1233 -23 -133 rlineto
          1151 hlineto
          -368 1124 rmoveto
          154 -943 rlineto
          -662 hlineto
          493 943 rlineto
          endchar
        </CharString>
        <CharString name="Djecyrillic">
          355 962 -14 rmoveto
          50 callsubr
          -9 hlineto
          78 432 rlineto
          400 hlineto
          33 201 rlineto
          -1030 hlineto
          -34 -201 rlineto
          403 hlineto
          -207 -1164 44 callsubr
        </CharString>
        <CharString name="Dlinebelow">
          169 -95 callgsubr
          462 -534 -78 callgsubr
        </CharString>
        <CharString name="Dzecyrillic">
          30 116 395 rmoveto
          -102 callgsubr
          endchar
        </CharString>
        <CharString name="Dzhecyrillic">
          248 554 hmoveto
          -50 -286 rlineto
          204 hlineto
          50 286 rlineto
          433 hlineto
          241 1365 95 callsubr
          -228 hlineto
          -241 -1365 rlineto
          endchar
        </CharString>
        <CharString name="E">
          -97 callgsubr
          endchar
        </CharString>
        <CharString name="Eacute">
          -97 callgsubr
          -285 1507 -71 callsubr
        </CharString>
        <CharString name="Ebreve">
          -97 callgsubr
          -462 1756 -69 callgsubr
          endchar
        </CharString>
        <CharString name="Ecaron">
          -97 callgsubr
          223 1735 -83 callgsubr
          endchar
        </CharString>
        <CharString name="Ecedilla">
          -2 callsubr
          endchar
        </CharString>
        <CharString name="Ecedillabreve">
          -2 callsubr
          385 1756 -69 callgsubr
          endchar
        </CharString>
        <CharString name="Ecircumflex">
          -97 callgsubr
          -528 1494 -64 callsubr
        </CharString>
        <CharString name="Ecircumflexacute">
          -97 callgsubr
          -531 1499 -51 callsubr
          295 -42 rmoveto
          155 hlineto
          271 238 rlineto
          -205 hlineto
          endchar
        </CharString>
        <CharString name="Ecircumflexbelow">
          -97 callgsubr
          -854 -404 -62 callsubr
          endchar
        </CharString>
        <CharString name="Ecircumflexdotbelow">
          -97 callgsubr
          -528 1494 -75 callgsubr
          -350 -1966 -93 callgsubr
        </CharString>
        <CharString name="Ecircumflexgrave">
          -97 callgsubr
          -531 1499 -51 callsubr
          544 -45 rmoveto
          -176 241 103 callsubr
          216 -241 rlineto
          endchar
        </CharString>
        <CharString name="Ecircumflexhookabove">
          -97 callgsubr
          -531 1499 -16 callgsubr
        </CharString>
        <CharString name="Ecircumflextilde">
          -97 callgsubr
          -516 1499 -38 callsubr
        </CharString>
        <CharString name="Ecyrillic">
          -18 callgsubr
          endchar
        </CharString>
        <CharString name="Edblgrave">
          -97 callgsubr
          -261 1507 -35 callgsubr
          endchar
        </CharString>
        <CharString name="Edieresis">
          -97 callgsubr
          -450 1578 -101 callsubr
          endchar
        </CharString>
        <CharString name="Edotaccent">
          -97 callgsubr
          -274 1602 -75 callsubr
        </CharString>
        <CharString name="Edotbelow">
          -97 callgsubr
          -586 36 callsubr
          endchar
        </CharString>
        <CharString name="Efcyrillic">
          423 1071 1235 rmoveto
          24 140 rlineto
          -220 hlineto
          -24 -134 rlineto
          -4 -24 0 -3 hhcurveto
          -376 -214 -189 -271 -42 hvcurveto
          -13 -86 rlineto
          -2 -10 -1 -11 -10 vvcurveto
          -29 -262 185 -222 331 -41 -25 -149 rcurveline
          221 hlineto
          23 143 rlineto
          4 24 0 4 hhcurveto
          375 214 190 270 42 hvcurveto
          14 86 rlineto
          1 11 1 10 11 vvcurveto
          29 262 -185 222 -330 40 rrcurveto
          -671 -563 rmoveto
          5 0 6 1 6 vhcurveto
          7 52 33 218 158 87 223 3 rlinecurve
          -128 -719 -194 28 -127 105 27 209 rlinecurve
          928 14 rmoveto
          -7 -52 -32 -219 -158 -87 -224 -2 rlinecurve
          129 718 193 -28 127 -105 -26 -208 rlinecurve
          -5 -1 -6 -1 -6 vhcurveto
          endchar
        </CharString>
        <CharString name="Egrave">
          -97 callgsubr
          -92 1507 -29 callsubr
        </CharString>
        <CharString name="Ehookabove">
          -97 callgsubr
          -285 1715 -61 callgsubr
          endchar
        </CharString>
        <CharString name="Einvertedbreve">
          -97 callgsubr
          155 1478 -50 callsubr
          endchar
        </CharString>
        <CharString name="Elcyrillic">
          169 380 886 -44 callgsubr
        </CharString>
        <CharString name="Emacron">
          -97 callgsubr
          160 1628 -44 callsubr
        </CharString>
        <CharString name="Emacronacute">
          -97 callgsubr
          -261 1740 36 callgsubr
        </CharString>
        <CharString name="Emacrongrave">
          -97 callgsubr
          161 1628 30 callgsubr
        </CharString>
        <CharString name="Emcyrillic">
          473 332 -67 callgsubr
          endchar
        </CharString>
        <CharString name="Encyrillic">
          257 350 hmoveto
          -84 callgsubr
          endchar
        </CharString>
        <CharString name="Eogonek">
          -49 766 -370 rmoveto
          48 54 9 10 30 hvcurveto
          23 137 rlineto
          -4 -19 -33 -4 -24 hhcurveto
          -65 -40 30 55 2 hvcurveto
          4 107 127 55 94 22 26 153 rcurveline
          -621 hlineto
          74 403 rlineto
          585 hlineto
          31 189 rlineto
          -584 hlineto
          69 373 rlineto
          615 hlineto
          34 200 rlineto
          -844 -95 callsubr
          567 -6 hlineto
          -74 -47 -39 -67 -2 -77 rrcurveto
          -120 -5 93 -53 115 hhcurveto
          endchar
        </CharString>
        <CharString name="Epsilongreek">
          -97 callgsubr
          endchar
        </CharString>
        <CharString name="Epsilontonosgreek">
          298 1312 -101 callgsubr
          -1116 990 -28 callsubr
        </CharString>
        <CharString name="Ercyrillic">
          36 349 hmoveto
          -74 callsubr
          endchar
        </CharString>
        <CharString name="Ereversedcyrillic">
          -90 callsubr
          endchar
        </CharString>
        <CharString name="Escyrillic">
          128 444 833 -90 callgsubr
          endchar
        </CharString>
        <CharString name="Etagreek">
          242 340 hmoveto
          -84 callgsubr
          endchar
        </CharString>
        <CharString name="Etatonosgreek">
          582 660 hmoveto
          -84 callgsubr
          -269 990 -28 callsubr
        </CharString>
        <CharString name="Eth">
          -6 callsubr
        </CharString>
        <CharString name="Etilde">
          -97 callgsubr
          -51 1458 -88 callsubr
          endchar
        </CharString>
        <CharString name="Etildebelow">
          -97 callgsubr
          -368 -437 -60 callgsubr
          endchar
        </CharString>
        <CharString name="Euro">
          -29 1231 1350 rmoveto
          27 -66 -108 15 -92 hhcurveto
          -316 -245 -164 -315 -95 hvcurveto
          -139 hlineto
          -24 -140 rlineto
          131 hlineto
          -19 -104 -3 -17 -3 -18 -2 -18 rlinecurve
          -132 hlineto
          -25 -140 rlineto
          151 hlineto
          -310 16 269 -193 324 hhcurveto
          41 57 3 6 38 hvcurveto
          33 197 rlineto
          -5 -32 -57 -3 -41 hhcurveto
          -231 -170 104 201 -23 hvcurveto
          416 hlineto
          24 140 rlineto
          -435 hlineto
          2 12 2 12 2 11 22 122 rcurveline
          436 hlineto
          24 140 rlineto
          -423 hlineto
          186 74 157 94 198 hhcurveto
          83 86 -15 -23 62 hvcurveto
          endchar
        </CharString>
        <CharString name="F">
          -75 339 22 callsubr
          endchar
        </CharString>
        <CharString name="Fdotaccent">
          -75 339 22 callsubr
          567 1602 -75 callsubr
        </CharString>
        <CharString name="G">
          -96 callsubr
          endchar
        </CharString>
        <CharString name="Gacute">
          -96 callsubr
          522 631 -71 callsubr
        </CharString>
        <CharString name="Gammagreek">
          -95 111 hmoveto
          228 hlineto
          209 1166 rlineto
          594 hlineto
          33 200 rlineto
          -821 hlineto
          endchar
        </CharString>
        <CharString name="Gbreve">
          -96 callsubr
          345 880 -69 callgsubr
          endchar
        </CharString>
        <CharString name="Gcaron">
          -96 callsubr
          1030 859 -83 callgsubr
          endchar
        </CharString>
        <CharString name="Gcircumflex">
          -96 callsubr
          279 618 -64 callsubr
        </CharString>
        <CharString name="Gcommaaccent">
          -96 callsubr
          418 -1328 -31 callsubr
        </CharString>
        <CharString name="Gdotaccent">
          -96 callsubr
          533 726 -75 callsubr
        </CharString>
        <CharString name="Gecyrillic">
          -95 349 hmoveto
          16 callgsubr
          endchar
        </CharString>
        <CharString name="Geupturncyrillic">
          -95 997 -10 callgsubr
          -635 -95 callsubr
          227 hlineto
          207 1165 rlineto
          611 hlineto
          85 486 rlineto
          -204 hlineto
          endchar
        </CharString>
        <CharString name="Gjecyrillic">
          -95 349 hmoveto
          16 callgsubr
          572 1507 -71 callsubr
        </CharString>
        <CharString name="Gmacron">
          -96 callsubr
          967 752 -44 callsubr
        </CharString>
        <CharString name="H">
          237 340 hmoveto
          -84 callgsubr
          endchar
        </CharString>
        <CharString name="Hardsigncyrillic">
          242 900 704 rmoveto
          161 76 -87 -124 -19 -3 -27 -4 -20 hvcurveto
          -122 -16 -86 -106 -222 81 callsubr
          91 505 rlineto
          -352 -704 rmoveto
          477 hlineto
          340 181 156 259 37 hvcurveto
          5 31 137 callgsubr
          225 -148 161 -269 66 callgsubr
          -569 hlineto
          -34 -203 rlineto
          340 hlineto
          endchar
        </CharString>
        <CharString name="Hbar">
          238 480 788 rmoveto
          34 186 rlineto
          622 hlineto
          -34 -186 rlineto
          -655 -201 rmoveto
          622 hlineto
          -101 -587 52 callgsubr
          172 974 rlineto
          95 131 callgsubr
          -96 hlineto
          35 190 rlineto
          -228 hlineto
          -34 -190 rlineto
          -623 hlineto
          35 190 rlineto
          -229 hlineto
          -34 -190 rlineto
          -97 hlineto
          -34 -201 rlineto
          97 hlineto
          -172 -974 rlineto
          228 hlineto
          endchar
        </CharString>
        <CharString name="Hbrevebelow">
          237 340 hmoveto
          -84 callgsubr
          208 -113 10 callsubr
        </CharString>
        <CharString name="Hcaron">
          237 340 hmoveto
          -84 callgsubr
          1200 1735 -83 callgsubr
          endchar
        </CharString>
        <CharString name="Hcedilla">
          237 196 hmoveto
          -46 -155 47 callgsubr
          -54 -11 -50 hhcurveto
          -36 -54 7 11 -35 83 callsubr
          -16 72 hhcurveto
          29 callgsubr
          -103 2 vhcurveto
          37 127 108 601 rlineto
          622 hlineto
          -103 -601 rlineto
          224 hlineto
          47 callsubr
          -100 -563 rlineto
          -622 -37 callsubr
          endchar
        </CharString>
        <CharString name="Hcircumflex">
          237 340 hmoveto
          -84 callgsubr
          449 1494 -64 callsubr
        </CharString>
        <CharString name="Hdieresis">
          237 340 hmoveto
          -84 callgsubr
          527 1578 -101 callsubr
          endchar
        </CharString>
        <CharString name="Hdotaccent">
          237 340 hmoveto
          -84 callgsubr
          703 1602 -75 callsubr
        </CharString>
        <CharString name="Hdotbelow">
          237 340 hmoveto
          -84 callgsubr
          380 36 callsubr
          endchar
        </CharString>
        <CharString name="I">
          -614 -58 callsubr
          endchar
        </CharString>
        <CharString name="I.1">
          -220 1015 1174 rmoveto
          32 192 rlineto
          -769 hlineto
          -31 -192 rlineto
          268 hlineto
          -172 -978 rlineto
          -272 hlineto
          -33 -196 rlineto
          270 hlineto
          228 hlineto
          270 hlineto
          34 196 rlineto
          -269 hlineto
          172 978 rlineto
          endchar
        </CharString>
        <CharString name="IAcyrillic">
          -66 callgsubr
          endchar
        </CharString>
        <CharString name="IJ">
          453 -58 callsubr
          1539 -63 callgsubr
          endchar
        </CharString>
        <CharString name="IJacute">
          453 -58 callsubr
          1539 -63 callgsubr
          -1089 1130 rmoveto
          171 hlineto
          335 322 rlineto
          -211 hlineto
          775 -322 -71 callsubr
        </CharString>
        <CharString name="IUcyrillic">
          -89 callsubr
          endchar
        </CharString>
        <CharString name="Iacute">
          -614 -58 callsubr
          270 1507 -71 callsubr
        </CharString>
        <CharString name="Iacute.1">
          -220 1051 1830 rmoveto
          -211 hlineto
          -295 -322 rlineto
          171 hlineto
          -469 -334 rmoveto
          268 hlineto
          -172 -978 rlineto
          -272 hlineto
          -33 -196 rlineto
          270 hlineto
          228 hlineto
          270 hlineto
          34 196 rlineto
          -269 hlineto
          172 978 rlineto
          272 hlineto
          32 192 rlineto
          -769 hlineto
          endchar
        </CharString>
        <CharString name="Ibreve">
          -614 -58 callsubr
          93 1756 -69 callgsubr
          endchar
        </CharString>
        <CharString name="Ibreve.1">
          -220 918 1757 rmoveto
          -88 -16 -78 -60 -102 hhcurveto
          -113 -52 65 79 hvcurveto
          4 -142 vlineto
          -1 -13 -2 -16 -11 vvcurveto
          -143 130 -97 160 195 143 112 168 21 vhcurveto
          -814 -583 rmoveto
          268 hlineto
          -172 -978 rlineto
          -272 hlineto
          -33 -196 rlineto
          270 hlineto
          228 hlineto
          270 hlineto
          34 196 rlineto
          -269 hlineto
          172 978 rlineto
          272 hlineto
          32 192 rlineto
          -769 hlineto
          endchar
        </CharString>
        <CharString name="Icaron">
          -614 -58 callsubr
          778 1735 -83 callgsubr
          endchar
        </CharString>
        <CharString name="Icaron.1">
          -220 793 1497 rmoveto
          292 239 rlineto
          -203 hlineto
          -169 -136 rlineto
          -14 hlineto
          -123 136 rlineto
          -193 hlineto
          220 -239 rlineto
          -356 -323 rmoveto
          268 hlineto
          -172 -978 rlineto
          -272 hlineto
          -33 -196 rlineto
          270 hlineto
          228 hlineto
          270 hlineto
          34 196 rlineto
          -269 hlineto
          172 978 rlineto
          272 hlineto
          32 192 rlineto
          -769 hlineto
          endchar
        </CharString>
        <CharString name="Icircumflex">
          -614 -58 callsubr
          27 1494 -64 callsubr
        </CharString>
        <CharString name="Icircumflex.1">
          -220 704 1631 rmoveto
          14 hlineto
          123 -136 rlineto
          193 hlineto
          -220 239 rlineto
          -190 hlineto
          -292 -239 rlineto
          203 hlineto
          480 -321 rmoveto
          32 192 rlineto
          -769 hlineto
          -31 -192 rlineto
          268 hlineto
          -172 -978 rlineto
          -272 hlineto
          -33 -196 rlineto
          270 hlineto
          228 hlineto
          270 hlineto
          34 196 rlineto
          -269 hlineto
          172 978 rlineto
          endchar
        </CharString>
        <CharString name="Icyrillic">
          -594 349 hmoveto
          -47 callgsubr
        </CharString>
        <CharString name="Icyrillic.1">
          -200 1025 1174 rmoveto
          32 192 rlineto
          -769 hlineto
          -31 -192 rlineto
          268 hlineto
          -172 -978 rlineto
          -272 hlineto
          -33 -196 rlineto
          270 hlineto
          228 hlineto
          270 hlineto
          34 196 rlineto
          -269 hlineto
          172 978 rlineto
          endchar
        </CharString>
        <CharString name="Idblgrave">
          -614 -58 callsubr
          294 1507 -35 callgsubr
          endchar
        </CharString>
        <CharString name="Idblgrave.1">
          -220 908 1508 rmoveto
          -180 322 rlineto
          -200 hlineto
          224 -322 rlineto
          -173 0 rmoveto
          -180 322 rlineto
          -200 hlineto
          224 -322 rlineto
          592 -334 rmoveto
          32 192 rlineto
          -769 hlineto
          -31 -192 rlineto
          268 hlineto
          -172 -978 rlineto
          -272 hlineto
          -33 -196 rlineto
          270 hlineto
          228 hlineto
          270 hlineto
          34 196 rlineto
          -269 hlineto
          172 978 rlineto
          endchar
        </CharString>
        <CharString name="Idieresis">
          -614 -58 callsubr
          105 1578 -101 callsubr
          endchar
        </CharString>
        <CharString name="Idieresis.1">
          -220 882 1468 rmoveto
          63 48 50 61 60 -48 50 -63 -63 -47 -50 -60 -61 47 -50 63 hvcurveto
          -359 0 rmoveto
          63 48 50 61 60 -48 50 -63 -63 -48 -50 -60 -61 48 -50 63 hvcurveto
          492 -294 rmoveto
          32 192 rlineto
          -769 hlineto
          -31 -192 rlineto
          268 hlineto
          -172 -978 rlineto
          -272 hlineto
          -33 -196 rlineto
          270 hlineto
          228 hlineto
          270 hlineto
          34 196 rlineto
          -269 hlineto
          172 978 rlineto
          endchar
        </CharString>
        <CharString name="Idieresisacute">
          -614 -58 callsubr
          303 1751 -22 callgsubr
          endchar
        </CharString>
        <CharString name="Idieresisacute.1">
          -220 1104 1945 rmoveto
          -232 hlineto
          -263 -193 rlineto
          195 hlineto
          -33 -172 rmoveto
          -62 47 -50 63 63 48 50 62 62 -48 50 -63 -63 -47 -50 -62 vhcurveto
          -249 -112 rmoveto
          63 48 50 62 62 -48 50 -63 -63 -48 -50 -62 -62 48 -50 63 hvcurveto
          -275 -294 rmoveto
          268 hlineto
          -172 -978 rlineto
          -272 hlineto
          -33 -196 rlineto
          270 hlineto
          228 hlineto
          270 hlineto
          34 196 rlineto
          -269 hlineto
          172 978 rlineto
          272 hlineto
          32 192 rlineto
          -769 hlineto
          endchar
        </CharString>
        <CharString name="Idotaccent">
          -614 -58 callsubr
          281 1602 -75 callsubr
        </CharString>
        <CharString name="Idotaccent.1">
          -220 697 1482 rmoveto
          65 53 54 67 66 -53 55 -65 -66 -53 -55 -66 -67 53 -54 66 hvcurveto
          318 -308 rmoveto
          32 192 rlineto
          -769 hlineto
          -31 -192 rlineto
          268 hlineto
          -172 -978 rlineto
          -272 hlineto
          -33 -196 rlineto
          270 hlineto
          228 hlineto
          270 hlineto
          34 196 rlineto
          -269 hlineto
          172 978 rlineto
          endchar
        </CharString>
        <CharString name="Idotbelow">
          -614 -58 callsubr
          -44 36 callsubr
          endchar
        </CharString>
        <CharString name="Idotbelow.1">
          -220 394 -115 rmoveto
          -70 -50 -46 -72 -73 51 -44 69 69 51 44 73 72 -51 46 -69 hvcurveto
          621 1289 rmoveto
          32 192 rlineto
          -769 hlineto
          -31 -192 rlineto
          268 hlineto
          -172 -978 rlineto
          -272 hlineto
          -33 -196 rlineto
          270 hlineto
          228 hlineto
          270 hlineto
          34 196 rlineto
          -269 hlineto
          172 978 rlineto
          endchar
        </CharString>
        <CharString name="Iecyrillic">
          -29 1002 -101 callgsubr
          endchar
        </CharString>
        <CharString name="Igrave">
          -614 -58 callsubr
          463 1507 -29 callsubr
        </CharString>
        <CharString name="Igrave.1">
          -220 808 1508 rmoveto
          -181 322 rlineto
          -199 hlineto
          223 -322 rlineto
          364 -334 rmoveto
          32 192 rlineto
          -769 hlineto
          -31 -192 rlineto
          268 hlineto
          -172 -978 rlineto
          -272 hlineto
          -33 -196 rlineto
          270 hlineto
          228 hlineto
          270 hlineto
          34 196 rlineto
          -269 hlineto
          172 978 rlineto
          endchar
        </CharString>
        <CharString name="Ihookabove">
          -614 -58 callsubr
          270 1715 -61 callgsubr
          endchar
        </CharString>
        <CharString name="Ihookabove.1">
          -220 707 1453 rmoveto
          119 41 75 83 101 vvcurveto
          97 -87 60 -119 -38 -32 -4 -7 -24 vhcurveto
          -18 -111 rlineto
          6 20 27 4 29 hhcurveto
          65 40 -27 -41 -45 -33 -30 -79 -36 hvcurveto
          363 -370 rmoveto
          32 192 rlineto
          -769 hlineto
          -31 -192 rlineto
          268 hlineto
          -172 -978 rlineto
          -272 hlineto
          -33 -196 rlineto
          270 hlineto
          228 hlineto
          270 hlineto
          34 196 rlineto
          -269 hlineto
          172 978 rlineto
          endchar
        </CharString>
        <CharString name="Iicyrillic">
          257 978 hmoveto
          -55 callsubr
          endchar
        </CharString>
        <CharString name="Iinvertedbreve">
          -614 -58 callsubr
          710 1478 -50 callsubr
          endchar
        </CharString>
        <CharString name="Iinvertedbreve.1">
          -220 853 1479 rmoveto
          142 hlineto
          2 13 2 16 11 vvcurveto
          143 -130 97 -161 -195 -143 -113 -167 -21 vhcurveto
          143 hlineto
          87 16 78 60 102 hhcurveto
          114 51 -64 -79 hvcurveto
          162 -309 rmoveto
          32 192 rlineto
          -769 hlineto
          -31 -192 rlineto
          268 hlineto
          -172 -978 rlineto
          -272 hlineto
          -33 -196 rlineto
          270 hlineto
          228 hlineto
          270 hlineto
          34 196 rlineto
          -269 hlineto
          172 978 rlineto
          endchar
        </CharString>
        <CharString name="Iishortcyrillic">
          257 978 hmoveto
          -55 callsubr
          -526 785 -80 callsubr
          endchar
        </CharString>
        <CharString name="Imacron">
          -614 -58 callsubr
          715 1628 -44 callsubr
        </CharString>
        <CharString name="Imacron.1">
          -220 1020 1629 rmoveto
          -621 hlineto
          -24 -124 rlineto
          621 hlineto
          19 -331 rmoveto
          32 192 rlineto
          -769 hlineto
          -31 -192 rlineto
          268 hlineto
          -172 -978 rlineto
          -272 hlineto
          -33 -196 rlineto
          270 hlineto
          228 hlineto
          270 hlineto
          34 196 rlineto
          -269 hlineto
          172 978 rlineto
          endchar
        </CharString>
        <CharString name="Iocyrillic">
          -29 1002 -101 callgsubr
          -450 1578 -101 callsubr
          endchar
        </CharString>
        <CharString name="Iogonek">
          -614 301 -350 rmoveto
          22 135 rlineto
          -6 -21 -35 -3 -22 hhcurveto
          -62 -40 28 57 3 hvcurveto
          2 86 83 62 115 33 234 1324 rcurveline
          -228 hlineto
          -234 -1326 rlineto
          21 -5 hlineto
          -80 -33 -91 -66 -4 -125 rrcurveto
          -103 -5 74 -80 133 hhcurveto
          60 55 13 9 20 hvcurveto
          endchar
        </CharString>
        <CharString name="Iogonek.1">
          -220 633 -372 rmoveto
          48 61 9 13 26 hvcurveto
          23 135 rlineto
          -5 -20 -35 -4 -24 hhcurveto
          -65 -37 31 54 3 hvcurveto
          3 82 77 69 120 30 27 154 rcurveline
          -271 hlineto
          175 978 rlineto
          271 hlineto
          32 192 rlineto
          -769 hlineto
          -31 -192 rlineto
          269 hlineto
          -175 -978 rlineto
          -270 hlineto
          -33 -196 rlineto
          506 -12 hlineto
          -66 -41 -44 -67 -3 -69 rrcurveto
          -110 -6 82 -73 126 hhcurveto
          endchar
        </CharString>
        <CharString name="Iotadieresisgreek">
          -609 -58 callsubr
          105 1578 -101 callsubr
          endchar
        </CharString>
        <CharString name="Iotadieresisgreek.1">
          -220 882 1468 rmoveto
          63 48 50 61 60 -48 50 -63 -63 -47 -50 -60 -61 47 -50 63 hvcurveto
          -359 0 rmoveto
          63 48 50 61 60 -48 50 -63 -63 -48 -50 -60 -61 48 -50 63 hvcurveto
          492 -294 rmoveto
          32 192 rlineto
          -769 hlineto
          -31 -192 rlineto
          268 hlineto
          -172 -978 rlineto
          -272 hlineto
          -33 -196 rlineto
          270 hlineto
          228 hlineto
          270 hlineto
          34 196 rlineto
          -269 hlineto
          172 978 rlineto
          endchar
        </CharString>
        <CharString name="Iotagreek">
          -609 -58 callsubr
          endchar
        </CharString>
        <CharString name="Iotagreek.1">
          -220 1015 1174 rmoveto
          32 192 rlineto
          -769 hlineto
          -31 -192 rlineto
          268 hlineto
          -172 -978 rlineto
          -272 hlineto
          -33 -196 rlineto
          270 hlineto
          228 hlineto
          270 hlineto
          34 196 rlineto
          -269 hlineto
          172 978 rlineto
          endchar
        </CharString>
        <CharString name="Iotatonosgreek">
          -268 659 -47 callsubr
          -269 990 -28 callsubr
        </CharString>
        <CharString name="Iotatonosgreek.1">
          147 328 1365 rmoveto
          -170 -375 rlineto
          159 hlineto
          233 375 rlineto
          832 -191 rmoveto
          32 192 rlineto
          -769 hlineto
          -31 -192 rlineto
          268 hlineto
          -172 -978 rlineto
          -272 hlineto
          -33 -196 rlineto
          270 hlineto
          228 hlineto
          270 hlineto
          34 196 rlineto
          -269 hlineto
          172 978 rlineto
          endchar
        </CharString>
        <CharString name="Itilde">
          -614 -58 callsubr
          504 1458 -88 callsubr
          endchar
        </CharString>
        <CharString name="Itilde.1">
          -220 892 1674 rmoveto
          -57 -6 -23 -43 -45 hhcurveto
          -70 -13 114 -149 hhcurveto
          -118 -70 -99 -113 -8 hvcurveto
          128 hlineto
          56 6 23 37 46 hhcurveto
          79 10 -110 140 hhcurveto
          118 74 103 112 6 hvcurveto
          -5 -500 rmoveto
          32 192 rlineto
          -769 hlineto
          -31 -192 rlineto
          268 hlineto
          -172 -978 rlineto
          -272 hlineto
          -33 -196 rlineto
          270 hlineto
          228 hlineto
          270 hlineto
          34 196 rlineto
          -269 hlineto
          172 978 rlineto
          endchar
        </CharString>
        <CharString name="Itildebelow">
          -614 -58 callsubr
          174 -437 -60 callgsubr
          endchar
        </CharString>
        <CharString name="Itildebelow.1">
          -220 176 -387 rmoveto
          51 8 20 60 52 hhcurveto
          86 18 -161 144 hhcurveto
          126 92 122 140 8 hvcurveto
          -139 hlineto
          -48 -7 -25 -64 -49 hhcurveto
          -79 -26 161 -150 hhcurveto
          -121 -83 -104 -157 -14 hvcurveto
          978 1561 rmoveto
          32 192 rlineto
          -769 hlineto
          -31 -192 rlineto
          268 hlineto
          -172 -978 rlineto
          -272 hlineto
          -33 -196 rlineto
          270 hlineto
          228 hlineto
          270 hlineto
          34 196 rlineto
          -269 hlineto
          172 978 rlineto
          endchar
        </CharString>
        <CharString name="J">
          -133 1065 -63 callgsubr
          endchar
        </CharString>
        <CharString name="Jcircumflex">
          -133 1065 -63 callgsubr
          -274 1116 -64 callsubr
        </CharString>
        <CharString name="Jecyrillic">
          -121 1075 -63 callgsubr
          endchar
        </CharString>
        <CharString name="K">
          105 581 -63 callsubr
          endchar
        </CharString>
        <CharString name="Kacute">
          105 581 -63 callsubr
          257 774 -71 callsubr
        </CharString>
        <CharString name="Kacyrillic">
          78 1409 1365 rmoveto
          -275 hlineto
          -573 -570 rlineto
          -74 hlineto
          100 570 rlineto
          -228 hlineto
          -241 -1365 rlineto
          228 hlineto
          108 606 rlineto
          74 hlineto
          390 -606 rlineto
          259 hlineto
          -438 691 rlineto
          endchar
        </CharString>
        <CharString name="Kappagreek">
          110 581 -63 callsubr
          endchar
        </CharString>
        <CharString name="Kcaron">
          105 581 -63 callsubr
          765 1002 -83 callgsubr
          endchar
        </CharString>
        <CharString name="Kcommaaccent">
          105 581 -63 callsubr
          80 -1185 -31 callsubr
        </CharString>
        <CharString name="Kdotbelow">
          105 581 -63 callsubr
          -45 -966 -93 callgsubr
        </CharString>
        <CharString name="Kjecyrillic">
          81 1258 1829 rmoveto
          -211 hlineto
          -295 -322 rlineto
          171 hlineto
          489 -142 rmoveto
          -275 hlineto
          -573 -570 rlineto
          -74 hlineto
          100 570 rlineto
          -228 hlineto
          -241 -1365 rlineto
          228 hlineto
          108 606 rlineto
          74 hlineto
          390 -606 rlineto
          259 hlineto
          -438 691 rlineto
          endchar
        </CharString>
        <CharString name="Klinebelow">
          105 581 -63 callsubr
          356 -1067 -78 callgsubr
        </CharString>
        <CharString name="L">
          -141 -33 callgsubr
          endchar
        </CharString>
        <CharString name="Lacute">
          -141 -33 callgsubr
          -560 1507 -71 callsubr
        </CharString>
        <CharString name="Lambdagreek">
          46 -27 hmoveto
          238 hlineto
          535 1105 rlineto
          15 hlineto
          137 -1105 76 callsubr
          -211 -39 callgsubr
          -264 hlineto
          endchar
        </CharString>
        <CharString name="Lcaron">
          -141 821 1426 rmoveto
          -93 74 callsubr
          -54 -1222 rmoveto
          -598 hlineto
          207 1161 -91 callsubr
          826 hlineto
          endchar
        </CharString>
        <CharString name="Lcircumflexbelow">
          -141 -33 callgsubr
          -876 -404 -62 callsubr
          endchar
        </CharString>
        <CharString name="Lcommaaccent">
          -141 -33 callgsubr
          -483 -452 -31 callsubr
        </CharString>
        <CharString name="Ldotbelow">
          -141 -33 callgsubr
          -608 36 callsubr
          endchar
        </CharString>
        <CharString name="Ldotbelowmacron">
          -141 -33 callgsubr
          -608 36 callsubr
          493 1861 -44 callsubr
        </CharString>
        <CharString name="Ljecyrillic">
          799 586 855 rmoveto
          63 309 rlineto
          442 84 callsubr
          477 hlineto
          335 185 153 262 38 hvcurveto
          5 31 137 callgsubr
          237 -162 149 -255 66 callgsubr
          -881 hlineto
          -92 -479 rlineto
          -543 -110 -64 -142 -137 hhcurveto
          -16 -21 4 5 -12 hvcurveto
          -35 -210 rlineto
          -7 16 30 -6 32 hhcurveto
          289 95 206 662 139 hvcurveto
          875 -151 rmoveto
          141 96 -69 -142 -19 -3 -28 -4 -19 hvcurveto
          -146 -18 -117 -82 -188 81 callsubr
          90 505 rlineto
          endchar
        </CharString>
        <CharString name="Llinebelow">
          -141 -33 callgsubr
          -207 -334 -78 callgsubr
        </CharString>
        <CharString name="Lslash">
          -118 957 hmoveto
          34 205 rlineto
          -600 hlineto
          82 452 382 195 35 213 -381 -197 90 498 rlineto
          -228 hlineto
          -113 -634 -137 -71 -35 -210 137 71 -93 -522 rlineto
          endchar
        </CharString>
        <CharString name="M">
          453 322 -67 callgsubr
          endchar
        </CharString>
        <CharString name="Macute">
          453 322 -67 callgsubr
          794 1507 -71 callsubr
        </CharString>
        <CharString name="Mdotaccent">
          453 322 -67 callgsubr
          805 1602 -75 callsubr
        </CharString>
        <CharString name="Mdotbelow">
          453 322 -67 callgsubr
          484 36 callsubr
          endchar
        </CharString>
        <CharString name="Mugreek">
          464 322 -67 callgsubr
          endchar
        </CharString>
        <CharString name="N">
          230 1183 -84 callsubr
          endchar
        </CharString>
        <CharString name="Nacute">
          230 1183 -84 callsubr
          -171 1507 -71 callsubr
        </CharString>
        <CharString name="Ncaron">
          230 1183 -84 callsubr
          337 1735 -83 callgsubr
          endchar
        </CharString>
        <CharString name="Ncircumflexbelow">
          230 1183 -84 callsubr
          -750 -404 -62 callsubr
          endchar
        </CharString>
        <CharString name="Ncommaaccent">
          230 1183 -84 callsubr
          -357 -452 -31 callsubr
        </CharString>
        <CharString name="Ndotaccent">
          230 1183 -84 callsubr
          -160 1602 -75 callsubr
        </CharString>
        <CharString name="Ndotbelow">
          230 1183 -84 callsubr
          -482 36 callsubr
          endchar
        </CharString>
        <CharString name="Ngrave">
          230 1183 -84 callsubr
          22 1507 -29 callsubr
        </CharString>
        <CharString name="Njecyrillic">
          872 957 hmoveto
          475 hlineto
          330 185 146 244 42 hvcurveto
          7 33 4 37 28 vvcurveto
          212 -158 143 -258 vhcurveto
          -251 hlineto
          93 522 rlineto
          -228 hlineto
          -93 -522 rlineto
          -605 hlineto
          93 522 -91 callsubr
          229 hlineto
          114 642 rlineto
          604 hlineto
          145 -448 rmoveto
          83 457 rlineto
          233 hlineto
          150 87 -65 -116 -16 -2 -23 -3 -16 hvcurveto
          -141 -16 -116 -80 -191 hhcurveto
          endchar
        </CharString>
        <CharString name="Nlinebelow">
          230 1183 -84 callsubr
          -81 -334 -78 callgsubr
        </CharString>
        <CharString name="Ntilde">
          230 1183 -84 callsubr
          63 1458 -88 callsubr
          endchar
        </CharString>
        <CharString name="Nugreek">
          235 1183 -84 callsubr
          endchar
        </CharString>
        <CharString name="NumberSignCyrillic">
          908 330 hmoveto
          209 963 rlineto
          9 hlineto
          423 -963 rlineto
          199 hlineto
          290 -39 callgsubr
          -218 hlineto
          -208 -960 rlineto
          -10 hlineto
          -422 960 rlineto
          -200 hlineto
          -290 -1365 rlineto
          1883 481 rmoveto
          34 169 rlineto
          -549 hlineto
          -34 -169 rlineto
          533 614 rmoveto
          -111 -61 -76 -91 -79 -46 53 92 111 61 75 90 79 47 -53 -91 vhcurveto
          174 6 rmoveto
          177 -112 112 -178 -196 -138 -142 -202 -178 113 -111 179 195 137 143 201 vhcurveto
          endchar
        </CharString>
        <CharString name="O">
          -104 callgsubr
          endchar
        </CharString>
        <CharString name="OE">
          814 167 674 rmoveto
          -11 -61 -4 -74 -48 vvcurveto
          -345 209 -173 287 145 142 51 117 85 vhcurveto
          5 hlineto
          -25 -141 rlineto
          820 hlineto
          34 198 rlineto
          -619 hlineto
          73 400 rlineto
          583 hlineto
          32 188 rlineto
          -583 hlineto
          69 382 rlineto
          619 hlineto
          33 198 rlineto
          -824 hlineto
          -35 -204 rlineto
          -6 hlineto
          138 -64 -150 92 -206 hhcurveto
          -290 -223 -183 -333 -59 hvcurveto
          228 -43 rmoveto
          237 44 132 114 180 hhcurveto
          209 117 -149 -193 -23 -1 -50 -7 -39 hvcurveto
          -32 -186 rlineto
          -239 -40 -122 -125 -203 hhcurveto
          -199 -125 122 213 42 5 57 8 45 hvcurveto
          endchar
        </CharString>
        <CharString name="Oacute">
          -104 callgsubr
          575 631 -71 callsubr
        </CharString>
        <CharString name="Obreve">
          -104 callgsubr
          398 880 -69 callgsubr
          endchar
        </CharString>
        <CharString name="Ocaron">
          -104 callgsubr
          1083 859 -83 callgsubr
          endchar
        </CharString>
        <CharString name="Ocircumflex">
          -104 callgsubr
          332 618 -64 callsubr
        </CharString>
        <CharString name="Ocircumflexacute">
          -104 callgsubr
          329 623 -51 callsubr
          295 -42 rmoveto
          155 hlineto
          271 238 rlineto
          -205 hlineto
          endchar
        </CharString>
        <CharString name="Ocircumflexdotbelow">
          -104 callgsubr
          332 618 -75 callgsubr
          -359 -1966 -93 callgsubr
        </CharString>
        <CharString name="Ocircumflexgrave">
          -104 callgsubr
          329 623 -51 callsubr
          544 -45 rmoveto
          -176 241 103 callsubr
          216 -241 rlineto
          endchar
        </CharString>
        <CharString name="Ocircumflexhookabove">
          -104 callgsubr
          329 623 -16 callgsubr
        </CharString>
        <CharString name="Ocircumflextilde">
          -104 callgsubr
          344 623 -38 callsubr
        </CharString>
        <CharString name="Ocyrillic">
          211 442 835 -107 callgsubr
          endchar
        </CharString>
        <CharString name="Odblgrave">
          -104 callgsubr
          599 631 -35 callgsubr
          endchar
        </CharString>
        <CharString name="Odieresis">
          -104 callgsubr
          410 702 -101 callsubr
          endchar
        </CharString>
        <CharString name="Odieresismacron">
          -104 callgsubr
          1058 1027 -23 callsubr
        </CharString>
        <CharString name="Odotaccent">
          -104 callgsubr
          586 726 -75 callsubr
        </CharString>
        <CharString name="Odotaccentmacron">
          -104 callgsubr
          583 697 23 callsubr
        </CharString>
        <CharString name="Odotbelow">
          -104 callgsubr
          265 -1109 -93 callgsubr
        </CharString>
        <CharString name="Ograve">
          -104 callgsubr
          768 631 -29 callsubr
        </CharString>
        <CharString name="Ohookabove">
          -104 callgsubr
          575 839 -61 callgsubr
          endchar
        </CharString>
        <CharString name="Ohorn">
          -92 callgsubr
          endchar
        </CharString>
        <CharString name="Ohornacute">
          -92 callgsubr
          -514 1015 -71 callsubr
        </CharString>
        <CharString name="Ohorndotbelow">
          -92 callgsubr
          -824 -725 -93 callgsubr
        </CharString>
        <CharString name="Ohorngrave">
          -92 callgsubr
          -321 1015 -29 callsubr
        </CharString>
        <CharString name="Ohornhookabove">
          -92 callgsubr
          -514 1223 -61 callgsubr
          endchar
        </CharString>
        <CharString name="Ohorntilde">
          -92 callgsubr
          -280 966 -88 callsubr
          endchar
        </CharString>
        <CharString name="Ohungarumlaut">
          -104 callgsubr
          405 631 14 callsubr
        </CharString>
        <CharString name="Oinvertedbreve">
          -104 callgsubr
          1015 602 -50 callsubr
          endchar
        </CharString>
        <CharString name="Omacron">
          -104 callgsubr
          1020 752 -44 callsubr
        </CharString>
        <CharString name="Omacronacute">
          -104 callgsubr
          599 864 36 callgsubr
        </CharString>
        <CharString name="Omacrongrave">
          -104 callgsubr
          1021 752 30 callgsubr
        </CharString>
        <CharString name="Omegagreek">
          223 739 -18 callsubr
          endchar
        </CharString>
        <CharString name="Omegatonosgreek">
          466 982 -18 callsubr
          -858 764 -28 callsubr
        </CharString>
        <CharString name="Omicrongreek">
          191 -105 callsubr
          endchar
        </CharString>
        <CharString name="Omicrontonosgreek">
          448 689 835 -107 callgsubr
          -299 114 -28 callsubr
        </CharString>
        <CharString name="Oogonek">
          -26 callgsubr
          endchar
        </CharString>
        <CharString name="Oogonekmacron">
          -26 callgsubr
          826 967 -44 callsubr
        </CharString>
        <CharString name="Oslash">
          -30 callsubr
          endchar
        </CharString>
        <CharString name="Oslashacute">
          -30 callsubr
          -279 452 -71 callsubr
        </CharString>
        <CharString name="Otilde">
          -104 callgsubr
          809 582 -88 callsubr
          endchar
        </CharString>
        <CharString name="Otildeacute">
          -104 callgsubr
          627 864 rmoveto
          169 hlineto
          280 194 99 callgsubr
          -58 -476 -32 callsubr
        </CharString>
        <CharString name="Otildedieresis">
          -104 callgsubr
          806 562 -88 callsubr
          -355 384 -101 callsubr
          endchar
        </CharString>
        <CharString name="Otildemacron">
          -104 callgsubr
          1056 1027 -4 callsubr
          -224 -321 -32 callsubr
        </CharString>
        <CharString name="P">
          16 339 hmoveto
          -74 callsubr
          endchar
        </CharString>
        <CharString name="Pacute">
          16 339 hmoveto
          -74 callsubr
          130 331 -71 callsubr
        </CharString>
        <CharString name="Pdotaccent">
          16 339 hmoveto
          -74 callsubr
          141 426 -75 callsubr
        </CharString>
        <CharString name="Pecyrillic">
          239 1183 hmoveto
          61 callsubr
        </CharString>
        <CharString name="Phigreek">
          476 1622 756 rmoveto
          286 -195 205 -316 48 vhcurveto
          23 131 51 callsubr
          -23 -125 rlineto
          -391 -246 -185 -311 -70 hvcurveto
          -17 -85 -8 -61 -63 vvcurveto
          -296 195 -207 317 -48 vhcurveto
          -23 -125 rlineto
          222 hlineto
          22 118 rlineto
          406 252 205 344 58 hvcurveto
          12 73 4 51 45 vvcurveto
          -759 358 rmoveto
          -157 -881 rlineto
          -204 35 -118 125 204 vvcurveto
          44 5 45 12 70 vhcurveto
          224 49 168 134 245 hhcurveto
          54 -887 rmoveto
          158 881 rlineto
          205 -36 117 -115 -210 vvcurveto
          -34 -2 -33 -8 -49 vhcurveto
          -40 -249 -170 -153 -260 -2 rrcurveto
          endchar
        </CharString>
        <CharString name="Pigreek">
          217 340 hmoveto
          207 1165 rlineto
          602 hlineto
          -207 -1165 4 callgsubr
          -1059 -95 callsubr
          endchar
        </CharString>
        <CharString name="Psigreek">
          333 589 hmoveto
          219 hlineto
          53 298 rlineto
          4 3 0 3 hhcurveto
          335 7 181 166 56 312 102 582 rcurveline
          -220 hlineto
          -97 -554 rlineto
          -217 -40 -88 -96 -205 hhcurveto
          154 867 rlineto
          -219 hlineto
          -154 -863 rlineto
          -149 14 -79 61 154 vvcurveto
          29 6 37 6 34 vhcurveto
          94 534 rlineto
          -220 hlineto
          -90 -511 rlineto
          -9 -48 -5 -45 -43 vvcurveto
          -259 147 -124 265 -36 vhcurveto
          endchar
        </CharString>
        <CharString name="Q">
          207 168 680 rmoveto
          -11 -64 -4 -63 -58 vvcurveto
          -336 233 -186 305 72 63 9 17 59 vhcurveto
          82 -134 110 callsubr
          -134 230 119 88 76 137 32 178 rlinecurve
          36 191 rlineto
          11 61 4 58 43 vvcurveto
          345 -227 196 -324 -302 -226 -192 -330 -58 vhcurveto
          651 -458 rmoveto
          -214 hlineto
          142 -235 rlineto
          -4 -23 -22 -3 -26 hhcurveto
          -204 -126 123 210 52 6 53 8 47 hvcurveto
          35 182 rlineto
          245 46 131 107 177 hhcurveto
          199 127 -126 -200 -21 0 -65 -8 -44 hvcurveto
          -36 -196 -22 -115 -44 -89 -63 -55 rlinecurve
          endchar
        </CharString>
        <CharString name="R">
          -94 callsubr
          endchar
        </CharString>
        <CharString name="Racute">
          -94 callsubr
          130 335 -71 callsubr
        </CharString>
        <CharString name="Rcaron">
          -94 callsubr
          638 563 -83 callgsubr
          endchar
        </CharString>
        <CharString name="Rcommaaccent">
          -94 callsubr
          -54 -1624 -31 callsubr
        </CharString>
        <CharString name="Rdblgrave">
          -94 callsubr
          154 335 -35 callgsubr
          endchar
        </CharString>
        <CharString name="Rdotaccent">
          -94 callsubr
          141 430 -75 callsubr
        </CharString>
        <CharString name="Rdotbelow">
          -94 callsubr
          -179 -1405 -93 callgsubr
        </CharString>
        <CharString name="Rdotbelowmacron">
          -94 callsubr
          -179 -1405 -98 callsubr
          754 1861 -44 callsubr
        </CharString>
        <CharString name="Rhogreek">
          24 339 hmoveto
          -74 callsubr
          endchar
        </CharString>
        <CharString name="Rinvertedbreve">
          -94 callsubr
          570 306 -50 callsubr
          endchar
        </CharString>
        <CharString name="Rlinebelow">
          -94 callsubr
          222 -1506 -78 callgsubr
        </CharString>
        <CharString name="S">
          34 106 395 rmoveto
          -102 callgsubr
          endchar
        </CharString>
        <CharString name="Sacute">
          34 106 395 rmoveto
          -102 callgsubr
          366 1112 -71 callsubr
        </CharString>
        <CharString name="Sacutedotaccent">
          34 106 395 rmoveto
          -102 callgsubr
          479 1104 59 callsubr
        </CharString>
        <CharString name="Scaron">
          34 106 395 rmoveto
          -102 callgsubr
          874 1340 -83 callgsubr
          endchar
        </CharString>
        <CharString name="Scarondotaccent">
          34 106 395 rmoveto
          -102 callgsubr
          870 1325 39 callsubr
        </CharString>
        <CharString name="Scedilla">
          34 540 -485 rmoveto
          29 callgsubr
          -104 2 vhcurveto
          31 101 rlineto
          0 vlineto
          276 14 202 151 261 vvcurveto
          226 -160 80 -169 61 vhcurveto
          -96 34 rlineto
          -134 49 -100 54 106 vvcurveto
          126 128 62 126 134 119 -71 -123 vhcurveto
          -10 -1 -5 -1 vvcurveto
          210 hlineto
          3 2 25 8 vvcurveto
          223 -208 145 -254 -272 -219 -146 -260 -222 177 -102 174 -61 vhcurveto
          81 -29 rlineto
          123 -43 104 -44 -116 vvcurveto
          -127 -117 -76 -156 -178 -114 98 109 7 0 8 1 7 vhcurveto
          -218 hlineto
          -2 -14 -1 -15 -16 vvcurveto
          -189 162 -148 237 -32 vhcurveto
          -39 -136 47 callgsubr
          -55 -11 -49 hhcurveto
          -36 -55 7 11 -34 83 callsubr
          -16 72 hhcurveto
          endchar
        </CharString>
        <CharString name="Scircumflex">
          34 106 395 rmoveto
          -102 callgsubr
          123 1099 -64 callsubr
        </CharString>
        <CharString name="Scommaaccent">
          34 106 395 rmoveto
          -102 callgsubr
          181 -847 -31 callsubr
        </CharString>
        <CharString name="Sdotaccent">
          34 106 395 rmoveto
          -102 callgsubr
          377 1207 -75 callsubr
        </CharString>
        <CharString name="Sdotbelow">
          34 106 395 rmoveto
          -102 callgsubr
          56 -628 -93 callgsubr
        </CharString>
        <CharString name="Sdotbelowdotaccent">
          34 106 395 rmoveto
          -102 callgsubr
          56 -628 -98 callsubr
          321 1835 -75 callsubr
        </CharString>
        <CharString name="Shacyrillic">
          769 121 hmoveto
          1591 hlineto
          47 callsubr
          -207 87 callsubr
          -454 134 callsubr
          -207 87 callsubr
          -453 134 callsubr
          endchar
        </CharString>
        <CharString name="Shchacyrillic">
          818 1838 -286 rmoveto
          84 488 rlineto
          -175 98 callsubr
          -229 hlineto
          -206 108 callgsubr
          -207 108 callgsubr
          -241 -1365 rlineto
          1563 hlineto
          -50 -286 rlineto
          endchar
        </CharString>
        <CharString name="Sigmagreek">
          -6 1036 hmoveto
          33 200 rlineto
          -664 hlineto
          2 13 413 452 7 39 -245 449 2 13 rlineto
          634 hlineto
          34 199 rlineto
          -933 hlineto
          -26 -151 288 -525 -486 -539 -25 -150 rlineto
          endchar
        </CharString>
        <CharString name="Softsigncyrillic">
          36 698 -54 callsubr
          endchar
        </CharString>
        <CharString name="T">
          -74 609 hmoveto
          -45 callsubr
          endchar
        </CharString>
        <CharString name="Taugreek">
          -61 609 hmoveto
          -45 callsubr
          endchar
        </CharString>
        <CharString name="Tbar">
          -74 945 614 rmoveto
          27 157 rlineto
          -227 hlineto
          71 392 122 callgsubr
          32 202 rlineto
          -1030 hlineto
          -34 -202 122 callgsubr
          -71 -392 rlineto
          -232 hlineto
          -27 -157 rlineto
          232 hlineto
          -110 -614 110 callsubr
          109 614 rlineto
          endchar
        </CharString>
        <CharString name="Tcaron">
          -74 609 hmoveto
          -45 callsubr
          776 1735 -83 callgsubr
          endchar
        </CharString>
        <CharString name="Tcedilla">
          -76 439 hmoveto
          -46 28 callgsubr
          38 127 rlineto
          28 hlineto
          208 132 callsubr
          399 hlineto
          32 202 rlineto
          -1030 hlineto
          -34 -202 rlineto
          405 hlineto
          -208 87 callsubr
          endchar
        </CharString>
        <CharString name="Tcircumflexbelow">
          -74 609 hmoveto
          -45 callsubr
          -311 -404 -62 callsubr
          endchar
        </CharString>
        <CharString name="Tcommaaccent">
          -74 609 hmoveto
          -45 callsubr
          82 -452 -31 callsubr
        </CharString>
        <CharString name="Tdotaccent">
          -74 609 hmoveto
          -45 callsubr
          279 1602 -75 callsubr
        </CharString>
        <CharString name="Tdotbelow">
          -74 609 hmoveto
          -45 callsubr
          -43 36 callsubr
          endchar
        </CharString>
        <CharString name="Tecyrillic">
          -69 612 hmoveto
          -45 callsubr
          endchar
        </CharString>
        <CharString name="Thetagreek">
          218 696 -27 rmoveto
          370 194 197 330 60 hvcurveto
          35 188 13 68 4 67 -1 49 rlinecurve
          336 -7 -231 184 -323 hhcurveto
          -339 -211 -208 -321 -58 hvcurveto
          -34 -187 rlineto
          -12 -63 -3 -64 -57 vvcurveto
          -326 1 226 -193 316 hhcurveto
          27 208 rmoveto
          -212 -127 120 213 1 hvcurveto
          55 5 41 8 45 vhcurveto
          34 179 rlineto
          258 48 131 95 191 hhcurveto
          209 126 -125 -196 2 hvcurveto
          -26 -1 -62 -8 -46 vhcurveto
          -33 -179 rlineto
          -256 -45 -119 -116 -210 hhcurveto
          258 406 rmoveto
          33 196 rlineto
          -470 hlineto
          -32 -196 rlineto
          endchar
        </CharString>
        <CharString name="Thorn">
          22 351 -10 callgsubr
          -241 -1365 rlineto
          226 hlineto
          50 278 76 callsubr
          336 179 144 252 36 hvcurveto
          5 31 2 26 30 vvcurveto
          216 -145 142 -267 vhcurveto
          -240 hlineto
          43 246 rlineto
          147 -439 rmoveto
          160 74 -65 -119 -20 -3 -22 -4 -20 hvcurveto
          -123 -20 -78 -87 -220 hhcurveto
          -213 hlineto
          83 456 rlineto
          endchar
        </CharString>
        <CharString name="Tlinebelow">
          -74 609 hmoveto
          -45 callsubr
          358 -334 -78 callgsubr
        </CharString>
        <CharString name="Tsecyrillic">
          297 1315 -286 rmoveto
          85 488 rlineto
          -175 134 callsubr
          -206 87 callsubr
          -614 hlineto
          206 1163 -91 callsubr
          1041 hlineto
          -50 -286 rlineto
          endchar
        </CharString>
        <CharString name="Tshecyrillic">
          400 754 743 rmoveto
          -10 hlineto
          76 420 rlineto
          400 hlineto
          35 202 rlineto
          -1031 hlineto
          -35 -202 rlineto
          404 hlineto
          -206 87 callsubr
          227 hlineto
          96 539 rlineto
          58 73 114 40 102 hhcurveto
          170 70 -99 -184 -32 hvcurveto
          -63 -354 rlineto
          227 hlineto
          61 348 rlineto
          310 55 -130 176 -294 hhcurveto
          -111 -119 -36 -55 -79 hvcurveto
          endchar
        </CharString>
        <CharString name="U">
          -103 callsubr
          endchar
        </CharString>
        <CharString name="Uacute">
          -103 callsubr
          363 965 -71 callsubr
        </CharString>
        <CharString name="Ubreve">
          -103 callsubr
          186 1214 -69 callgsubr
          endchar
        </CharString>
        <CharString name="Ucaron">
          -103 callsubr
          871 1193 -83 callgsubr
          endchar
        </CharString>
        <CharString name="Ucircumflex">
          -103 callsubr
          120 952 -64 callsubr
        </CharString>
        <CharString name="Ucircumflexbelow">
          -103 callsubr
          -220 -946 -62 callsubr
          endchar
        </CharString>
        <CharString name="Ucyrillic">
          -23 1091 1365 rmoveto
          -425 -759 rlineto
          -10 hlineto
          -222 759 rlineto
          -246 hlineto
          325 -1015 rlineto
          -103 -73 -65 -54 -100 hhcurveto
          -40 -35 7 3 -14 hvcurveto
          -30 -203 rlineto
          -3 11 39 -10 57 hhcurveto
          236 112 125 252 144 hvcurveto
          580 1001 rlineto
          endchar
        </CharString>
        <CharString name="Udblgrave">
          -103 callsubr
          387 965 -35 callgsubr
          endchar
        </CharString>
        <CharString name="Udieresis">
          -103 callsubr
          198 1036 -101 callsubr
          endchar
        </CharString>
        <CharString name="Udieresisacute">
          -103 callsubr
          396 1209 -22 callgsubr
          endchar
        </CharString>
        <CharString name="Udieresisbelow">
          -103 callsubr
          -21 -887 rmoveto
          -99 callgsubr
        </CharString>
        <CharString name="Udieresiscaron">
          -103 callsubr
          904 1402 19 callsubr
        </CharString>
        <CharString name="Udieresisgrave">
          -103 callsubr
          198 1402 rmoveto
          240 -193 rlineto
          174 hlineto
          -199 193 rlineto
          -215 -366 -101 callsubr
          endchar
        </CharString>
        <CharString name="Udieresismacron">
          -103 callsubr
          846 1361 -23 callsubr
        </CharString>
        <CharString name="Udotbelow">
          -103 callsubr
          48 -775 -93 callgsubr
        </CharString>
        <CharString name="Ugrave">
          -103 callsubr
          556 965 -29 callsubr
        </CharString>
        <CharString name="Uhookabove">
          -103 callsubr
          363 1173 -61 callgsubr
          endchar
        </CharString>
        <CharString name="Uhorn">
          -83 callsubr
          endchar
        </CharString>
        <CharString name="Uhornacute">
          -83 callsubr
          97 1533 -71 callsubr
        </CharString>
        <CharString name="Uhorndotbelow">
          -83 callsubr
          -218 -207 -93 callgsubr
        </CharString>
        <CharString name="Uhorngrave">
          -83 callsubr
          290 1533 -29 callsubr
        </CharString>
        <CharString name="Uhornhookabove">
          -83 callsubr
          97 1741 -61 callgsubr
          endchar
        </CharString>
        <CharString name="Uhorntilde">
          -83 callsubr
          331 1484 -88 callsubr
          endchar
        </CharString>
        <CharString name="Uhungarumlaut">
          -103 callsubr
          193 965 14 callsubr
        </CharString>
        <CharString name="Uinvertedbreve">
          -103 callsubr
          803 936 -50 callsubr
          endchar
        </CharString>
        <CharString name="Umacron">
          -103 callsubr
          808 1086 -44 callsubr
        </CharString>
        <CharString name="Umacrondieresis">
          -103 callsubr
          800 1074 34 callgsubr
        </CharString>
        <CharString name="Uogonek">
          193 1025 71 rmoveto
          99 84 77 105 29 161 166 944 rcurveline
          -231 hlineto
          -160 -902 rlineto
          -191 -35 -122 -85 -157 hhcurveto
          -174 -108 107 159 32 4 40 4 85 callgsubr
          -231 65 callgsubr
          -51 -46 vvcurveto
          -279 213 -162 236 61 76 16 26 47 vhcurveto
          2 -13 -84 -55 -39 -69 -11 -65 rlinecurve
          -23 -131 96 -72 128 -1 rrcurveto
          59 54 14 6 17 hvcurveto
          24 144 rlineto
          -7 -25 -31 -2 -19 hhcurveto
          -67 -46 28 71 12 hvcurveto
          14 81 75 52 81 72 rrcurveto
          endchar
        </CharString>
        <CharString name="Upsilondieresisgreek">
          -35 730 541 -81 callsubr
          -129 1578 -101 callsubr
          endchar
        </CharString>
        <CharString name="Upsilongreek">
          -34 730 541 -81 callsubr
          endchar
        </CharString>
        <CharString name="Upsilontonosgreek">
          441 1206 541 -81 callsubr
          -948 990 -28 callsubr
        </CharString>
        <CharString name="Uring">
          -103 callsubr
          505 1033 7 callgsubr
        </CharString>
        <CharString name="Ushortcyrillic">
          -23 1007 1756 rmoveto
          -92 -16 -71 -64 -128 hhcurveto
          -125 -51 64 92 16 hvcurveto
          -142 hlineto
          -159 -27 102 -121 208 hhcurveto
          225 125 117 163 26 hvcurveto
          -58 -391 rmoveto
          -425 -759 rlineto
          -10 hlineto
          -222 759 rlineto
          -246 hlineto
          325 -1015 rlineto
          -103 -73 -65 -54 -100 hhcurveto
          -40 -35 7 3 -14 hvcurveto
          -30 -203 rlineto
          -3 11 39 -10 57 hhcurveto
          236 112 125 252 144 hvcurveto
          580 1001 rlineto
          endchar
        </CharString>
        <CharString name="Utilde">
          -103 callsubr
          597 916 -88 callsubr
          endchar
        </CharString>
        <CharString name="Utildeacute">
          -103 callsubr
          415 1198 rmoveto
          169 hlineto
          280 194 99 callgsubr
          -58 -476 -32 callsubr
        </CharString>
        <CharString name="Utildebelow">
          -103 callsubr
          266 -979 -60 callgsubr
          endchar
        </CharString>
        <CharString name="V">
          25 callgsubr
          endchar
        </CharString>
        <CharString name="Vdotbelow">
          25 callgsubr
          -27 36 callsubr
          endchar
        </CharString>
        <CharString name="Vecyrillic">
          118 121 -77 callgsubr
          endchar
        </CharString>
        <CharString name="Vtilde">
          25 callgsubr
          515 1458 -88 callsubr
          endchar
        </CharString>
        <CharString name="W">
          603 549 -70 callgsubr
          endchar
        </CharString>
        <CharString name="Wacute">
          603 549 -70 callgsubr
          660 1507 -71 callsubr
        </CharString>
        <CharString name="Wcircumflex">
          603 549 -70 callgsubr
          417 1494 -64 callsubr
        </CharString>
        <CharString name="Wdieresis">
          603 549 -70 callgsubr
          495 1578 -101 callsubr
          endchar
        </CharString>
        <CharString name="Wdotaccent">
          603 549 -70 callgsubr
          671 1602 -75 callsubr
        </CharString>
        <CharString name="Wdotbelow">
          603 549 -70 callgsubr
          354 36 callsubr
          endchar
        </CharString>
        <CharString name="Wgrave">
          603 549 -70 callgsubr
          853 1507 -29 callsubr
        </CharString>
        <CharString name="X">
          53 1118 1365 -55 callgsubr
          endchar
        </CharString>
        <CharString name="Xacyrillic">
          73 1128 1365 -55 callgsubr
          endchar
        </CharString>
        <CharString name="Xdieresis">
          53 1118 1365 -55 callgsubr
          -845 213 -101 callsubr
          endchar
        </CharString>
        <CharString name="Xdotaccent">
          53 1118 1365 -55 callgsubr
          -669 237 -75 callsubr
        </CharString>
        <CharString name="Xigreek">
          -6 264 1160 rmoveto
          942 hlineto
          36 205 rlineto
          -942 hlineto
          -51 -772 rmoveto
          770 hlineto
          34 196 rlineto
          -770 hlineto
          -225 -789 rmoveto
          942 hlineto
          35 205 rlineto
          -942 hlineto
          endchar
        </CharString>
        <CharString name="Y">
          -34 730 541 -81 callsubr
          endchar
        </CharString>
        <CharString name="Yacute">
          -34 730 541 -81 callsubr
          36 1507 -71 callsubr
        </CharString>
        <CharString name="Ycircumflex">
          -34 730 541 -81 callsubr
          -207 1494 -64 callsubr
        </CharString>
        <CharString name="Ydieresis">
          -34 730 541 -81 callsubr
          -129 1578 -101 callsubr
          endchar
        </CharString>
        <CharString name="Ydotaccent">
          -34 730 541 -81 callsubr
          47 1602 -75 callsubr
        </CharString>
        <CharString name="Ydotbelow">
          -34 730 541 -81 callsubr
          -274 36 callsubr
          endchar
        </CharString>
        <CharString name="Yericyrillic">
          -34 callsubr
          endchar
        </CharString>
        <CharString name="Ygrave">
          -34 730 541 -81 callsubr
          229 1507 -29 callsubr
        </CharString>
        <CharString name="Yhookabove">
          -34 730 541 -81 callsubr
          36 1715 -61 callgsubr
          endchar
        </CharString>
        <CharString name="Yicyrillic">
          -594 349 -47 callsubr
          105 1578 -101 callsubr
          endchar
        </CharString>
        <CharString name="Yicyrillic.1">
          -200 892 1468 rmoveto
          63 48 50 61 60 -48 50 -63 -63 -47 -50 -60 -61 47 -50 63 hvcurveto
          -359 0 rmoveto
          63 48 50 61 60 -48 50 -63 -63 -48 -50 -60 -61 48 -50 63 hvcurveto
          492 -294 rmoveto
          32 192 rlineto
          -769 hlineto
          -31 -192 rlineto
          268 hlineto
          -172 -978 rlineto
          -272 hlineto
          -33 -196 rlineto
          270 hlineto
          228 hlineto
          270 hlineto
          34 196 rlineto
          -269 hlineto
          172 978 rlineto
          endchar
        </CharString>
        <CharString name="Ymacron">
          -34 730 541 -81 callsubr
          481 1628 -44 callsubr
        </CharString>
        <CharString name="Ytilde">
          -34 730 541 -81 callsubr
          270 1458 -88 callsubr
          endchar
        </CharString>
        <CharString name="Z">
          17 73 hmoveto
          -59 callsubr
          endchar
        </CharString>
        <CharString name="Zacute">
          17 73 hmoveto
          -59 callsubr
          610 1340 -71 callsubr
        </CharString>
        <CharString name="Zcaron">
          17 73 hmoveto
          -59 callsubr
          1118 1568 -83 callgsubr
          endchar
        </CharString>
        <CharString name="Zcircumflex">
          17 73 hmoveto
          -59 callsubr
          367 1327 -64 callsubr
        </CharString>
        <CharString name="Zdotaccent">
          17 73 hmoveto
          -59 callsubr
          621 1435 -75 callsubr
        </CharString>
        <CharString name="Zdotbelow">
          17 73 hmoveto
          -59 callsubr
          300 -400 -93 callgsubr
        </CharString>
        <CharString name="Zecyrillic">
          -9 453 612 -79 callsubr
          endchar
        </CharString>
        <CharString name="Zetagreek">
          24 73 hmoveto
          -59 callsubr
          endchar
        </CharString>
        <CharString name="Zhecyrillic">
          682 2017 1365 rmoveto
          -273 hlineto
          -547 -570 rlineto
          -74 hlineto
          101 570 rlineto
          -222 hlineto
          -101 -570 rlineto
          -74 hlineto
          -355 570 rlineto
          -256 hlineto
          403 -632 -656 -733 rlineto
          284 hlineto
          548 606 rlineto
          74 hlineto
          -108 -606 rlineto
          222 hlineto
          107 606 rlineto
          74 hlineto
          353 -606 rlineto
          258 hlineto
          -398 694 rlineto
          endchar
        </CharString>
        <CharString name="Zlinebelow">
          17 73 hmoveto
          -59 callsubr
          701 -501 -78 callgsubr
        </CharString>
        <CharString name="a">
          -79 407 -107 callsubr
          endchar
        </CharString>
        <CharString name="a.1">
          -105 callgsubr
          endchar
        </CharString>
        <CharString name="aacute">
          -79 407 -107 callsubr
          243 921 -72 callsubr
        </CharString>
        <CharString name="aacute.1">
          -105 callgsubr
          -8 156 -72 callsubr
        </CharString>
        <CharString name="abreve">
          -79 407 -107 callsubr
          111 1203 -76 callgsubr
          endchar
        </CharString>
        <CharString name="abreve.1">
          -105 callgsubr
          -110 438 -76 callgsubr
          endchar
        </CharString>
        <CharString name="abreveacute">
          -79 407 -107 callsubr
          95 1137 -81 callgsubr
          214 100 rmoveto
          153 hlineto
          335 338 rlineto
          -201 hlineto
          endchar
        </CharString>
        <CharString name="abreveacute.1">
          -105 callgsubr
          -126 370 -81 callgsubr
          214 100 rmoveto
          153 hlineto
          335 338 rlineto
          -201 hlineto
          endchar
        </CharString>
        <CharString name="abrevedotbelow">
          -79 407 -107 callsubr
          111 1203 -76 callgsubr
          -271 -1743 -93 callgsubr
        </CharString>
        <CharString name="abrevedotbelow.1">
          -105 callgsubr
          -110 438 -76 callgsubr
          -285 -1743 -93 callgsubr
        </CharString>
        <CharString name="abrevegrave">
          -79 407 -107 callsubr
          95 1135 -81 callgsubr
          391 100 rmoveto
          -179 338 103 callsubr
          227 -338 rlineto
          endchar
        </CharString>
        <CharString name="abrevegrave.1">
          -105 callgsubr
          -106 370 -81 callgsubr
          391 100 rmoveto
          -179 338 103 callsubr
          227 -338 rlineto
          endchar
        </CharString>
        <CharString name="abrevehookabove">
          -79 407 -107 callsubr
          95 1136 -81 callgsubr
          188 373 rmoveto
          -17 -107 rlineto
          8 22 29 5 26 hhcurveto
          64 35 -26 -44 -45 -38 -34 -70 -27 hvcurveto
          50 -90 rlineto
          114 38 72 81 99 vvcurveto
          103 -79 52 -121 -37 -31 -5 -8 -19 vhcurveto
          endchar
        </CharString>
        <CharString name="abrevehookabove.1">
          -105 callgsubr
          -126 370 -81 callgsubr
          188 373 rmoveto
          -17 -107 rlineto
          8 22 29 5 26 hhcurveto
          64 35 -26 -44 -45 -38 -34 -70 -27 hvcurveto
          50 -90 rlineto
          114 38 72 81 99 vvcurveto
          103 -79 52 -121 -37 -31 -5 -8 -19 vhcurveto
          endchar
        </CharString>
        <CharString name="abrevetilde">
          -79 407 -107 callsubr
          95 1137 -81 callgsubr
          469 122 rmoveto
          115 78 107 117 9 hvcurveto
          -124 hlineto
          -64 -7 -26 -41 -44 -74 -9 135 -147 hhcurveto
          -112 -78 -95 -126 -10 hvcurveto
          123 hlineto
          60 7 24 39 48 81 5 -132 141 hhcurveto
          endchar
        </CharString>
        <CharString name="abrevetilde.1">
          -105 callgsubr
          -126 370 -81 callgsubr
          469 122 rmoveto
          115 78 107 117 9 hvcurveto
          -124 hlineto
          -64 -7 -26 -41 -44 -74 -9 135 -147 hhcurveto
          -112 -78 -95 -126 -10 hvcurveto
          123 hlineto
          60 7 24 39 48 81 5 -132 141 hhcurveto
          endchar
        </CharString>
        <CharString name="acaron">
          -79 407 -107 callsubr
          747 1282 -72 callgsubr
        </CharString>
        <CharString name="acaron.1">
          -105 callgsubr
          550 517 -72 callgsubr
        </CharString>
        <CharString name="acircumflex">
          -79 407 -107 callsubr
          37 921 -73 callsubr
          endchar
        </CharString>
        <CharString name="acircumflex.1">
          -105 callgsubr
          -139 156 -73 callsubr
          endchar
        </CharString>
        <CharString name="acircumflexacute">
          -79 407 -107 callsubr
          27 921 -27 callgsubr
        </CharString>
        <CharString name="acircumflexacute.1">
          -105 callgsubr
          -169 156 -27 callgsubr
        </CharString>
        <CharString name="acircumflexdotbelow">
          -79 407 -107 callsubr
          37 921 -73 callsubr
          -360 -1825 -93 callgsubr
        </CharString>
        <CharString name="acircumflexdotbelow.1">
          -105 callgsubr
          -159 156 -73 callsubr
          -351 -1825 -93 callgsubr
        </CharString>
        <CharString name="acircumflexgrave">
          -79 407 -107 callsubr
          27 921 -29 callgsubr
        </CharString>
        <CharString name="acircumflexgrave.1">
          -105 callgsubr
          -169 156 -29 callgsubr
        </CharString>
        <CharString name="acircumflexhookabove">
          -79 407 -107 callsubr
          32 921 -56 callsubr
        </CharString>
        <CharString name="acircumflexhookabove.1">
          -105 callgsubr
          -169 156 -56 callsubr
        </CharString>
        <CharString name="acircumflextilde">
          -79 407 -107 callsubr
          33 930 -57 callsubr
        </CharString>
        <CharString name="acircumflextilde.1">
          -105 callgsubr
          -163 156 -57 callsubr
        </CharString>
        <CharString name="acute">
          -200 401 1228 -72 callsubr
        </CharString>
        <CharString name="acutecmb">
          25 1228 -72 callsubr
        </CharString>
        <CharString name="acutecmb.short">
          85 1508 -71 callsubr
        </CharString>
        <CharString name="acutedotaccentcmb">
          135 1222 60 callgsubr
        </CharString>
        <CharString name="acutedotaccentcmb.short">
          198 1500 59 callsubr
        </CharString>
        <CharString name="acyrillic">
          -71 407 -107 callsubr
          endchar
        </CharString>
        <CharString name="acyrillic.1">
          25 869 636 37 callgsubr
          -271 436 77 callsubr
          -153 215 167 92 103 83 35 vhcurveto
          15 hlineto
          -32 -172 rlineto
          222 hlineto
          188 1058 96 callgsubr
          endchar
        </CharString>
        <CharString name="adblgrave">
          -79 407 -107 callsubr
          288 921 -40 callgsubr
        </CharString>
        <CharString name="adblgrave.1">
          -105 callgsubr
          86 156 -40 callgsubr
        </CharString>
        <CharString name="adieresis">
          -79 407 -107 callsubr
          201 913 rmoveto
          -99 callgsubr
        </CharString>
        <CharString name="adieresis.1">
          -105 callgsubr
          148 vmoveto
          -99 callgsubr
        </CharString>
        <CharString name="adieresismacron">
          -79 407 -107 callsubr
          728 1288 -46 callgsubr
        </CharString>
        <CharString name="adieresismacron.1">
          -105 callgsubr
          527 523 -46 callgsubr
        </CharString>
        <CharString name="adotaccent">
          -79 407 -107 callsubr
          277 1056 -69 callsubr
        </CharString>
        <CharString name="adotaccent.1">
          -105 callgsubr
          61 291 -69 callsubr
        </CharString>
        <CharString name="adotbelow">
          -79 407 -107 callsubr
          -24 -540 -93 callgsubr
        </CharString>
        <CharString name="adotbelow.1">
          -105 callgsubr
          -226 -1305 -93 callgsubr
        </CharString>
        <CharString name="adotmacron">
          -79 407 -107 callsubr
          734 1288 rmoveto
          23 131 rlineto
          -612 hlineto
          -23 -131 rlineto
          147 -251 -69 callsubr
        </CharString>
        <CharString name="adotmacron.1">
          -105 callgsubr
          533 523 rmoveto
          23 131 rlineto
          -612 hlineto
          -23 -131 rlineto
          147 -251 -69 callsubr
        </CharString>
        <CharString name="ae">
          569 1206 -89 callgsubr
          endchar
        </CharString>
        <CharString name="aeacute">
          569 1206 -89 callgsubr
          -611 601 -72 callsubr
        </CharString>
        <CharString name="aemacron">
          569 1206 -89 callgsubr
          -173 623 -78 callgsubr
        </CharString>
        <CharString name="agrave">
          -79 407 -107 callsubr
          485 921 -35 callsubr
        </CharString>
        <CharString name="agrave.1">
          18 871 633 rmoveto
          -13 -1 -24 -4 -23 vhcurveto
          -23 -123 rlineto
          -164 -29 -95 -109 -145 hhcurveto
          -139 -89 90 151 31 3 36 3 17 hvcurveto
          25 124 rlineto
          149 30 87 108 145 hhcurveto
          113 119 -81 -169 hvcurveto
          -274 438 rmoveto
          -245 -149 -165 -234 -44 hvcurveto
          -31 -156 rlineto
          -9 -42 -2 -48 -43 vvcurveto
          -245 150 -154 217 168 101 103 86 30 vhcurveto
          15 hlineto
          -31 -174 rlineto
          221 20 callsubr
          -36 -205 rlineto
          -14 hlineto
          102 -16 -112 117 -176 hhcurveto
          293 156 -35 callsubr
        </CharString>
        <CharString name="ahookabove">
          -79 407 -107 callsubr
          244 1144 -65 callsubr
        </CharString>
        <CharString name="ahookabove.1">
          -105 callgsubr
          -4 389 -65 callsubr
        </CharString>
        <CharString name="ainvertedbreve">
          -79 407 -107 callsubr
          675 925 -56 callgsubr
        </CharString>
        <CharString name="ainvertedbreve.1">
          -105 callgsubr
          479 160 -56 callgsubr
        </CharString>
        <CharString name="alphagreek">
          -25 callgsubr
          endchar
        </CharString>
        <CharString name="alphatonosgreek">
          -25 callgsubr
          39 1041 -28 callsubr
        </CharString>
        <CharString name="amacron">
          -79 407 -107 callsubr
          681 943 -78 callgsubr
        </CharString>
        <CharString name="amacron.1">
          -105 callgsubr
          480 178 -78 callgsubr
        </CharString>
        <CharString name="ampersand">
          212 1147 738 rmoveto
          -1 -29 -6 -53 -8 -33 -17 -92 -35 -82 -57 -78 -254 354 rcurveline
          6 3 29 13 4 3 rrcurveto
          217 101 95 109 147 vvcurveto
          166 -142 110 -212 -223 -155 -121 -174 -87 33 -82 89 -133 vhcurveto
          -27 -12 rlineto
          -253 -108 -114 -128 -173 vvcurveto
          -232 186 -154 280 143 132 39 79 121 vhcurveto
          70 -100 238 1 -158 224 105 116 59 116 25 138 rlinecurve
          7 33 11 87 3 32 rrcurveto
          -740 -591 rmoveto
          -156 -111 93 131 103 84 89 162 69 hvcurveto
          22 10 283 -404 rlineto
          -57 -71 -105 -34 -108 hhcurveto
          -11 922 rmoveto
          86 73 63 101 95 70 -55 -74 -93 -75 -73 -149 -60 vhcurveto
          -1 -1 -19 -7 -1 hhcurveto
          -65 89 -29 65 60 vvcurveto
          endchar
        </CharString>
        <CharString name="anoteleia">
          -631 212 896 93 callgsubr
        </CharString>
        <CharString name="aogonek">
          -79 313 310 rmoveto
          88 69 75 148 vhcurveto
          233 hlineto
          -24 -119 rlineto
          -112 -22 -109 -79 -124 hhcurveto
          -108 -63 63 84 hvcurveto
          531 -676 rmoveto
          23 139 rlineto
          -5 -22 -36 -3 -23 hhcurveto
          -62 -44 29 58 8 hvcurveto
          12 93 130 56 72 24 101 572 rcurveline
          8 45 8 49 43 vvcurveto
          206 -140 134 -253 -252 -146 -132 -160 -27 vhcurveto
          213 hlineto
          63 19 64 51 113 hhcurveto
          143 53 -84 -81 -14 -2 -18 -2 -9 hvcurveto
          -12 -70 rlineto
          -269 hlineto
          -260 -149 -110 -182 -20 hvcurveto
          -2 -17 0 -16 -14 vvcurveto
          -188 142 -109 175 155 99 81 75 37 vhcurveto
          13 hlineto
          -20 -120 -80 -49 -87 -46 -16 -116 rlinecurve
          -134 -17 104 -63 113 hhcurveto
          65 48 14 8 23 hvcurveto
          endchar
        </CharString>
        <CharString name="aogonek.1">
          18 871 634 rmoveto
          -15 -2 -27 -3 -18 vhcurveto
          -23 -123 rlineto
          -172 -30 -101 -101 -138 hhcurveto
          -141 -87 92 149 28 3 37 3 19 hvcurveto
          25 124 rlineto
          163 33 96 94 133 hhcurveto
          135 97 -104 -146 hvcurveto
          53 -999 rmoveto
          23 139 rlineto
          -5 -18 -31 -4 -24 hhcurveto
          -62 -42 30 57 8 hvcurveto
          12 83 114 60 88 30 182 1033 rcurveline
          -223 hlineto
          -36 -205 rlineto
          -14 hlineto
          122 -19 -136 97 -149 hhcurveto
          -227 -163 -148 -251 -48 hvcurveto
          -31 -156 rlineto
          -8 -36 -3 -47 -50 vvcurveto
          -241 146 -158 221 136 125 78 111 38 vhcurveto
          15 hlineto
          -27 -154 rlineto
          15 hlineto
          -90 -50 -82 -50 -16 -111 rrcurveto
          -128 -17 95 -69 120 hhcurveto
          63 43 14 9 22 hvcurveto
          endchar
        </CharString>
        <CharString name="approxequal">
          -29 846 590 -16 callsubr
          60 62 hhcurveto
          56 42 -49 -49 52 hvcurveto
          -47 50 62 -52 96 hhcurveto
          -90 -441 -16 callsubr
          59 62 hhcurveto
          56 42 -48 -49 52 hvcurveto
          -48 50 62 -51 96 hhcurveto
          endchar
        </CharString>
        <CharString name="approxequal.uc">
          -29 867 762 -16 callsubr
          60 62 hhcurveto
          56 42 -49 -49 52 hvcurveto
          -47 50 62 -52 96 hhcurveto
          -90 -441 -16 callsubr
          59 62 hhcurveto
          56 42 -48 -49 52 hvcurveto
          -48 50 62 -51 96 hhcurveto
          endchar
        </CharString>
        <CharString name="aring">
          -79 407 -107 callsubr
          401 1018 -77 callsubr
        </CharString>
        <CharString name="aring.1">
          -105 callgsubr
          200 253 -77 callsubr
        </CharString>
        <CharString name="aringacute">
          -79 407 -107 callsubr
          400 1017 -11 callgsubr
        </CharString>
        <CharString name="aringacute.1">
          -105 callgsubr
          199 252 -11 callgsubr
        </CharString>
        <CharString name="aringbelow">
          -79 407 -107 callsubr
          95 -694 -77 callsubr
        </CharString>
        <CharString name="aringbelow.1">
          -105 callgsubr
          -20 -1459 -77 callsubr
        </CharString>
        <CharString name="asciicircum">
          -325 881 797 rmoveto
          -176 568 rlineto
          -203 hlineto
          -373 -568 rlineto
          196 hlineto
          245 382 rlineto
          11 hlineto
          106 -382 rlineto
          endchar
        </CharString>
        <CharString name="asciitilde">
          -33 839 480 rmoveto
          175 112 150 190 11 hvcurveto
          -174 hlineto
          -82 -12 -44 -61 -75 -147 -51 226 -221 hhcurveto
          -182 -111 -155 -192 -4 hvcurveto
          173 hlineto
          91 12 52 61 69 141 57 -228 219 hhcurveto
          endchar
        </CharString>
        <CharString name="asterisk">
          -216 881 674 rmoveto
          99 133 -269 171 307 90 -61 156 -285 -148 73 310 -160 24 -16 -319 -234 220 -99 -133 267 -171 -305 -90 61 -157 283 146 -71 -307 160 -24 17 317 rlineto
          endchar
        </CharString>
        <CharString name="asterisk.uc">
          -16 1079 451 rmoveto
          -320 194 378 124 -70 186 -350 -195 105 382 -193 22 -29 -392 -275 261 -126 -164 323 -196 -382 -122 72 -185 351 194 -105 -382 193 -22 31 391 272 -260 rlineto
          endchar
        </CharString>
        <CharString name="at">
          545 1057 277 -43 callsubr
        </CharString>
        <CharString name="at.uc">
          545 1086 378 -43 callsubr
        </CharString>
        <CharString name="atilde">
          -79 407 -107 callsubr
          500 915 -93 callsubr
          endchar
        </CharString>
        <CharString name="atilde.1">
          -105 callgsubr
          298 145 -93 callsubr
          endchar
        </CharString>
        <CharString name="austral">
          -29 432 493 rmoveto
          74 169 rlineto
          256 hlineto
          14 -169 rlineto
          -68 629 rmoveto
          15 hlineto
          28 -327 rlineto
          -187 hlineto
          616 -140 rmoveto
          24 140 rlineto
          -245 hlineto
          -70 570 rlineto
          -264 hlineto
          -270 -570 rlineto
          -241 hlineto
          -24 -140 rlineto
          198 hlineto
          -74 -158 rlineto
          -153 hlineto
          -24 -140 rlineto
          110 hlineto
          -169 -357 rlineto
          237 hlineto
          157 357 rlineto
          416 hlineto
          30 -357 rlineto
          239 hlineto
          -44 357 rlineto
          114 hlineto
          24 140 rlineto
          -155 hlineto
          -20 158 rlineto
          endchar
        </CharString>
        <CharString name="b">
          -70 callsubr
          endchar
        </CharString>
        <CharString name="backslash">
          -450 602 -298 100 callsubr
        </CharString>
        <CharString name="backslash.uc">
          -450 625 -165 100 callsubr
        </CharString>
        <CharString name="baht">
          -29 692 609 rmoveto
          137 -18 62 -71 -104 vvcurveto
          -144 -116 -84 -160 -15 vhcurveto
          -301 -3 rmoveto
          79 444 rlineto
          154 hlineto
          -79 -444 rlineto
          27 1028 rmoveto
          155 hlineto
          -71 -400 rlineto
          -155 hlineto
          370 389 rmoveto
          87 -20 42 -51 -85 vvcurveto
          -121 -80 -78 -116 -25 vhcurveto
          136 -85 rmoveto
          135 27 146 125 186 vvcurveto
          144 -83 136 -237 22 vhcurveto
          25 139 rlineto
          -146 hlineto
          -24 -136 rlineto
          -367 hlineto
          -241 -1365 rlineto
          367 hlineto
          -25 -144 rlineto
          146 hlineto
          25 145 rlineto
          324 9 200 150 252 vvcurveto
          171 -108 104 -140 22 vhcurveto
          endchar
        </CharString>
        <CharString name="bar">
          -450 353 -311 102 callgsubr
        </CharString>
        <CharString name="bar.uc">
          -450 376 -178 102 callgsubr
        </CharString>
        <CharString name="bdotaccent">
          -70 callsubr
          -26 1240 -75 callsubr
        </CharString>
        <CharString name="bdotbelow">
          -70 callsubr
          36 -667 -93 callgsubr
        </CharString>
        <CharString name="becyrillic">
          -34 373 590 rmoveto
          168 35 90 88 138 hhcurveto
          141 86 -102 -138 -13 0 -39 -4 -26 hvcurveto
          -1 -4 -16 -82 -1 -4 rrcurveto
          -163 -32 -84 -105 -140 hhcurveto
          -152 -85 102 144 38 3 26 5 27 hvcurveto
          1 4 16 75 4 vvcurveto
          332 437 rmoveto
          -159 -96 -70 -108 -57 hvcurveto
          -11 hlineto
          63 223 94 113 230 9 92 5 rcurveline
          208 8 91 84 41 146 rrcurveto
          -192 hlineto
          -14 -30 -41 -19 -90 -4 -80 -3 rcurveline
          -395 -17 -144 -220 -86 -470 -16 -86 rcurveline
          -14 -71 -3 -53 -45 vvcurveto
          -266 1 176 -169 267 hhcurveto
          280 162 166 247 48 hvcurveto
          1 6 19 90 1 6 rrcurveto
          6 38 3 41 28 vvcurveto
          257 -157 164 -228 vhcurveto
          endchar
        </CharString>
        <CharString name="betagreek">
          32 31 -351 rmoveto
          221 hlineto
          95 540 rlineto
          10 hlineto
          -122 40 112 -83 177 hhcurveto
          278 166 210 253 158 -83 133 -143 33 hvcurveto
          2 12 rlineto
          147 52 97 125 195 vvcurveto
          204 -165 127 -228 -291 -138 -155 -325 -57 vhcurveto
          372 -830 rmoveto
          -157 -94 99 138 22 2 19 6 41 hvcurveto
          94 520 rlineto
          205 38 81 80 130 hhcurveto
          135 63 -70 -122 -149 -82 -82 -166 hvcurveto
          -87 hlineto
          -29 -182 rlineto
          62 hlineto
          171 96 -100 -140 -160 -95 -119 -168 hvcurveto
          endchar
        </CharString>
        <CharString name="bitcoin">
          -29 346 223 rmoveto
          71 393 rlineto
          233 hlineto
          143 78 -57 -106 -145 -107 -85 -239 hvcurveto
          -14 921 rmoveto
          213 hlineto
          131 49 -62 -75 -134 -103 -85 -213 hvcurveto
          -142 hlineto
          413 -68 rmoveto
          160 30 110 139 146 vvcurveto
          142 -96 99 -157 24 vhcurveto
          36 205 rlineto
          -128 hlineto
          -36 -199 rlineto
          -129 hlineto
          35 199 rlineto
          -128 hlineto
          -36 -199 rlineto
          -159 hlineto
          -222 -1247 rlineto
          163 hlineto
          -36 -198 rlineto
          128 hlineto
          36 198 rlineto
          130 hlineto
          -36 -198 rlineto
          128 hlineto
          36 202 rlineto
          272 26 167 161 204 vvcurveto
          134 -93 99 -147 24 vhcurveto
          endchar
        </CharString>
        <CharString name="blinebelow">
          -70 callsubr
          437 -768 -78 callgsubr
        </CharString>
        <CharString name="braceleft">
          -450 291 592 -1 callgsubr
        </CharString>
        <CharString name="braceleft.uc">
          -450 312 712 -1 callgsubr
        </CharString>
        <CharString name="braceright">
          -450 527 565 0 callsubr
        </CharString>
        <CharString name="braceright.uc">
          -450 548 685 0 callsubr
        </CharString>
        <CharString name="bracketleft">
          -450 381 1437 68 callsubr
        </CharString>
        <CharString name="bracketleft.uc">
          -450 402 1557 68 callsubr
        </CharString>
        <CharString name="bracketright">
          -450 244 1437 68 callgsubr
        </CharString>
        <CharString name="bracketright.uc">
          -450 265 1557 68 callgsubr
        </CharString>
        <CharString name="breve">
          -200 404 1508 -76 callgsubr
          endchar
        </CharString>
        <CharString name="breveacutecmb">
          -123 1442 -81 callgsubr
          214 100 rmoveto
          153 hlineto
          335 338 rlineto
          -201 hlineto
          endchar
        </CharString>
        <CharString name="breveacutecmb.short">
          -87 1732 -4 callgsubr
          75 13 rmoveto
          151 hlineto
          218 200 rlineto
          -189 hlineto
          endchar
        </CharString>
        <CharString name="brevebelowcmb">
          -398 -113 10 callsubr
        </CharString>
        <CharString name="brevecmb">
          -107 1510 -76 callgsubr
          endchar
        </CharString>
        <CharString name="brevecmb.short">
          -92 1757 -69 callgsubr
          endchar
        </CharString>
        <CharString name="brevecyrillic">
          -193 399 1513 -86 callgsubr
        </CharString>
        <CharString name="brevecyrillic.short">
          -88 1757 -80 callsubr
          endchar
        </CharString>
        <CharString name="brevegravecmb">
          -123 1442 -81 callgsubr
          391 100 rmoveto
          -179 338 103 callsubr
          227 -338 rlineto
          endchar
        </CharString>
        <CharString name="brevegravecmb.short">
          -87 1732 -4 callgsubr
          253 13 rmoveto
          -110 200 94 callsubr
          146 -200 rlineto
          endchar
        </CharString>
        <CharString name="brevehookabovecmb">
          -123 1442 -81 callgsubr
          188 373 rmoveto
          -17 -107 rlineto
          8 22 29 5 26 hhcurveto
          64 35 -26 -44 -45 -38 -34 -70 -27 hvcurveto
          50 -90 rlineto
          114 38 72 81 99 vvcurveto
          103 -79 52 -121 -37 -31 -5 -8 -19 vhcurveto
          endchar
        </CharString>
        <CharString name="brevehookabovecmb.short">
          -82 1716 11 callsubr
        </CharString>
        <CharString name="brevetildecmb">
          -123 1442 -81 callgsubr
          469 122 rmoveto
          115 78 107 117 9 hvcurveto
          -124 hlineto
          -64 -7 -26 -41 -44 -74 -9 135 -147 hhcurveto
          -112 -78 -95 -126 -10 hvcurveto
          123 hlineto
          60 7 24 39 48 81 5 -132 141 hhcurveto
          endchar
        </CharString>
        <CharString name="brevetildecmb.short">
          -68 1703 8 callgsubr
        </CharString>
        <CharString name="brokenbar">
          -450 548 787 rmoveto
          114 650 rlineto
          -202 hlineto
          -114 -650 rlineto
          7 -1098 rmoveto
          119 672 rlineto
          -202 hlineto
          -119 -672 rlineto
          endchar
        </CharString>
        <CharString name="bullet">
          -216 519 205 60 callsubr
        </CharString>
        <CharString name="bullet.uc">
          -216 544 347 60 callsubr
        </CharString>
        <CharString name="c">
          -114 120 397 -88 callgsubr
          endchar
        </CharString>
        <CharString name="cacute">
          -114 120 397 -88 callgsubr
          450 831 -72 callsubr
        </CharString>
        <CharString name="caron">
          -200 1042 1587 -72 callgsubr
        </CharString>
        <CharString name="caroncmb">
          533 1589 -72 callgsubr
        </CharString>
        <CharString name="caroncmb.short">
          593 1736 -83 callgsubr
          endchar
        </CharString>
        <CharString name="carondotaccentcmb">
          -113 1587 39 callgsubr
        </CharString>
        <CharString name="carondotaccentcmb.short">
          589 1721 39 callsubr
        </CharString>
        <CharString name="ccaron">
          -114 120 397 -88 callgsubr
          958 1192 -72 callgsubr
        </CharString>
        <CharString name="ccedilla">
          -115 452 -65 callgsubr
          endchar
        </CharString>
        <CharString name="ccedillaacute">
          -115 452 -65 callgsubr
          118 1713 -72 callsubr
        </CharString>
        <CharString name="ccircumflex">
          -114 120 397 -88 callgsubr
          249 831 -73 callsubr
          endchar
        </CharString>
        <CharString name="cdotaccent">
          -114 120 397 -88 callgsubr
          486 966 -69 callsubr
        </CharString>
        <CharString name="cedi">
          -29 381 837 rmoveto
          41 214 116 115 153 17 -173 -982 rcurveline
          -117 40 -69 108 158 vvcurveto
          40 7 77 7 36 vhcurveto
          866 252 rmoveto
          3 10 3 25 21 vvcurveto
          198 -143 150 -208 45 vhcurveto
          25 140 rlineto
          -145 hlineto
          -22 -126 -286 -3 -221 -183 -58 -317 rlinecurve
          -43 -221 rlineto
          -5 -26 -4 -65 -46 vvcurveto
          -279 141 -184 234 -48 vhcurveto
          -26 -147 rlineto
          145 hlineto
          24 135 258 5 207 140 39 226 rlinecurve
          3 11 3 22 1 6 rrcurveto
          -212 hlineto
          -28 -138 -99 -69 -138 -9 174 986 rcurveline
          97 -29 61 -74 9 -111 1 -13 -1 -17 -1 -15 rrcurveto
          endchar
        </CharString>
        <CharString name="cedilla">
          -200 271 -152 -34 callgsubr
        </CharString>
        <CharString name="cedillacmb">
          -188 -152 -34 callgsubr
        </CharString>
        <CharString name="cent">
          -29 177 545 rmoveto
          -201 111 -145 175 -48 vhcurveto
          -41 -235 rlineto
          180 hlineto
          39 221 rlineto
          1 hlineto
          206 5 168 117 29 188 rrcurveto
          -217 hlineto
          -70 -16 -72 -55 -115 hhcurveto
          -153 -75 97 155 28 3 32 7 40 hvcurveto
          20 112 rlineto
          166 29 101 86 128 hhcurveto
          139 72 -93 -81 97 callgsubr
          0 11 8 vvcurveto
          153 -103 133 -172 43 vhcurveto
          45 249 rlineto
          -180 hlineto
          -41 -232 rlineto
          0 vlineto
          -222 -12 -174 -132 -43 -253 -23 -132 rcurveline
          -9 -51 -5 -54 -42 vvcurveto
          endchar
        </CharString>
        <CharString name="checyrillic">
          -23 937 hmoveto
          -42 callsubr
          endchar
        </CharString>
        <CharString name="chigreek">
          -43 550 155 rmoveto
          106 -338 rlineto
          -123 39 55 -54 128 hhcurveto
          38 35 4 7 26 hvcurveto
          30 175 rlineto
          -3 -16 -14 -2 -21 hhcurveto
          -56 -33 25 88 -29 hvcurveto
          -133 406 533 718 rlineto
          -232 hlineto
          -371 -502 rlineto
          -11 hlineto
          -101 321 rlineto
          143 -44 -52 47 -126 hhcurveto
          -42 -38 -6 -6 -25 hvcurveto
          -31 -175 rlineto
          3 16 18 3 15 hhcurveto
          67 26 -24 -90 30 hvcurveto
          132 -403 -536 -720 rlineto
          232 hlineto
          376 506 rlineto
          endchar
        </CharString>
        <CharString name="circumflex">
          -200 320 1228 -73 callsubr
          endchar
        </CharString>
        <CharString name="circumflexacutecmb">
          -186 1228 -27 callgsubr
        </CharString>
        <CharString name="circumflexacutecmb.short">
          67 callsubr
          295 -42 rmoveto
          155 hlineto
          271 238 rlineto
          -205 hlineto
          endchar
        </CharString>
        <CharString name="circumflexbelowcmb">
          -494 -404 -62 callsubr
          endchar
        </CharString>
        <CharString name="circumflexcmb">
          -176 1228 -73 callsubr
          endchar
        </CharString>
        <CharString name="circumflexcmb.short">
          -158 1495 -64 callsubr
        </CharString>
        <CharString name="circumflexgravecmb">
          -186 1228 -29 callgsubr
        </CharString>
        <CharString name="circumflexgravecmb.short">
          67 callsubr
          544 -45 rmoveto
          -176 241 103 callsubr
          216 -241 rlineto
          endchar
        </CharString>
        <CharString name="circumflexhookabovecmb">
          -186 1228 -56 callsubr
        </CharString>
        <CharString name="circumflexhookabovecmb.short">
          -161 1500 -16 callgsubr
        </CharString>
        <CharString name="circumflextildecmb">
          -180 1228 -57 callsubr
        </CharString>
        <CharString name="circumflextildecmb.short">
          -146 1500 -38 callsubr
        </CharString>
        <CharString name="colon">
          -626 202 805 129 callgsubr
          91 71 64 94 96 -70 66 -92 -87 -71 -65 -97 vhcurveto
          -119 -666 rmoveto
          46 callsubr
          endchar
        </CharString>
        <CharString name="colon.uc">
          -624 236 1005 129 callgsubr
          64 callsubr
          -114 -666 129 callgsubr
          91 71 64 94 96 -70 66 -92 -87 -71 -65 -97 vhcurveto
          endchar
        </CharString>
        <CharString name="coloncurrency">
          -29 910 1192 rmoveto
          1 9 10 0 9 hhcurveto
          46 43 -3 -6 40 hvcurveto
          -460 -956 -46 25 -38 33 -29 41 rlinecurve
          -20 460 rmoveto
          35 196 103 125 144 54 -317 -661 rcurveline
          -1 7 0 7 7 vvcurveto
          36 5 52 8 41 vhcurveto
          904 841 rmoveto
          -140 hlineto
          -59 -124 -45 11 -52 7 -54 4 rlinecurve
          49 102 rlineto
          -139 hlineto
          -49 -103 -313 -25 -231 -197 -66 -355 rlinecurve
          -27 -143 rlineto
          -10 -52 -4 -63 -49 vvcurveto
          -111 32 -98 55 -79 vhcurveto
          -167 -348 rlineto
          139 hlineto
          119 248 37 -31 41 -26 46 -21 rlinecurve
          -82 -170 rlineto
          139 hlineto
          61 127 rlineto
          -15 60 63 -8 66 hhcurveto
          49 62 3 6 41 hvcurveto
          33 197 rlineto
          -5 -36 -62 -3 -47 hhcurveto
          -49 -46 5 9 -43 hvcurveto
          endchar
        </CharString>
        <CharString name="comma">
          -650 131 -397 rmoveto
          321 610 rlineto
          -255 hlineto
          -251 -610 rlineto
          endchar
        </CharString>
        <CharString name="commaaccent">
          -200 414 -456 -31 callsubr
        </CharString>
        <CharString name="commabelowcmb">
          -101 -452 -31 callsubr
        </CharString>
        <CharString name="copyright">
          523 894 -66 rmoveto
          388 296 250 369 46 hvcurveto
          13 102 rlineto
          4 32 2 36 27 vvcurveto
          379 -288 305 -424 -383 -296 -249 -347 -43 vhcurveto
          -13 -103 rlineto
          -4 -36 -3 -34 -36 vvcurveto
          -394 282 -301 423 vhcurveto
          -578 689 rmoveto
          27 2 36 4 30 vhcurveto
          13 105 rlineto
          275 33 237 213 321 hhcurveto
          339 252 -241 -327 -25 -1 -19 -4 -25 hvcurveto
          -12 -106 rlineto
          -308 -38 -249 -200 -320 hhcurveto
          -341 -236 230 335 hvcurveto
          260 -31 rmoveto
          -185 119 -117 190 164 116 88 138 23 vhcurveto
          -149 hlineto
          -55 -13 -54 -36 -78 hhcurveto
          -113 -52 71 112 21 2 20 5 29 hvcurveto
          13 74 rlineto
          120 21 70 68 97 hhcurveto
          95 53 -66 -59 hvcurveto
          -3 0 -11 -3 vvcurveto
          145 hlineto
          2 6 1 19 5 vvcurveto
          125 -107 118 -192 -183 -118 -107 -176 -30 vhcurveto
          -18 -100 rlineto
          -5 -35 -4 -33 -28 vvcurveto
          endchar
        </CharString>
        <CharString name="cruzeiro">
          -29 457 787 rmoveto
          270 48 178 136 238 hhcurveto
          97 84 -15 -23 64 hvcurveto
          33 195 rlineto
          26 -68 -106 16 -106 hhcurveto
          -348 -261 -199 -381 -71 hvcurveto
          -27 -143 rlineto
          -10 -52 -4 -63 -49 vvcurveto
          -327 275 -205 334 49 62 3 6 41 vhcurveto
          33 197 rlineto
          -5 -36 -62 -3 -47 hhcurveto
          -37 -36 3 5 -34 hvcurveto
          51 281 rlineto
          143 25 69 77 114 hhcurveto
          30 25 -2 -5 16 hvcurveto
          31 168 rlineto
          5 -16 -17 2 -22 hhcurveto
          -93 -70 -43 -102 -45 hvcurveto
          -10 hlineto
          26 131 rlineto
          -163 hlineto
          -107 -603 rlineto
          -102 57 -61 98 136 vvcurveto
          36 5 52 8 41 vhcurveto
          endchar
        </CharString>
        <CharString name="currency">
          -29 396 652 rmoveto
          128 102 104 127 126 102 -104 -128 -129 -102 -104 -126 -127 -102 104 129 vhcurveto
          523 -538 rmoveto
          127 110 -129 172 rlineto
          60 67 39 85 97 vvcurveto
          64 -15 67 -26 53 vhcurveto
          215 159 -105 135 -213 -160 rlineto
          59 -67 -79 33 -92 hhcurveto
          -64 -66 -15 -28 -53 hvcurveto
          -138 185 -129 -112 140 -186 rlineto
          -56 -66 -34 -82 -93 vvcurveto
          -65 14 -67 26 -54 vhcurveto
          -200 -152 103 -133 202 151 rlineto
          -56 65 79 -32 96 hhcurveto
          57 62 12 25 50 hvcurveto
          endchar
        </CharString>
        <CharString name="d">
          18 -96 callgsubr
          endchar
        </CharString>
        <CharString name="dagger">
          -216 950 910 rmoveto
          32 188 -270 -3 50 270 rlineto
          -195 hlineto
          -44 -270 -269 3 -31 -188 269 2 -108 -590 rlineto
          194 hlineto
          103 590 rlineto
          endchar
        </CharString>
        <CharString name="daggerdbl">
          -216 879 503 rmoveto
          30 178 -270 -2 29 151 26 153 269 -2 29 179 -269 -3 39 208 103 callsubr
          -35 -208 -269 3 -29 -179 269 2 -30 -151 -24 -153 -269 2 -30 -178 269 2 -39 -208 rlineto
          194 hlineto
          35 208 rlineto
          endchar
        </CharString>
        <CharString name="dblgrave">
          -200 689 1228 -40 callgsubr
        </CharString>
        <CharString name="dblgravecmb">
          69 1228 -40 callgsubr
        </CharString>
        <CharString name="dblgravecmb.short">
          109 1508 -35 callgsubr
          endchar
        </CharString>
        <CharString name="dcaron">
          220 1410 1437 rmoveto
          -94 74 callsubr
          -1016 -365 -94 callgsubr
          endchar
        </CharString>
        <CharString name="dcircumflexbelow">
          18 -96 callgsubr
          -752 -1038 -62 callsubr
          endchar
        </CharString>
        <CharString name="dcommaaccent">
          18 -96 callgsubr
          -359 -1086 -31 callsubr
        </CharString>
        <CharString name="dcroat">
          26 871 634 rmoveto
          -13 -1 -24 -4 -23 vhcurveto
          -23 -123 rlineto
          -163 -29 -95 -110 -145 hhcurveto
          -139 -89 90 151 30 3 35 3 19 hvcurveto
          25 124 rlineto
          149 30 87 108 145 hhcurveto
          113 119 -81 -169 hvcurveto
          -88 -460 rmoveto
          15 hlineto
          -31 -174 46 callgsubr
          206 1160 rlineto
          153 hlineto
          25 147 rlineto
          -158 hlineto
          23 130 rlineto
          -213 hlineto
          -23 -130 95 callgsubr
          -25 -147 rlineto
          215 hlineto
          -54 -307 rlineto
          -14 hlineto
          102 -16 -113 117 -176 hhcurveto
          -245 -149 -165 -234 -44 hvcurveto
          -31 -156 rlineto
          -9 -41 -2 -49 -43 vvcurveto
          -245 151 -152 216 169 100 101 86 30 vhcurveto
          endchar
        </CharString>
        <CharString name="ddotaccent">
          18 -96 callgsubr
          181 1040 -75 callsubr
        </CharString>
        <CharString name="ddotbelow">
          18 -96 callgsubr
          -484 -867 -93 callgsubr
        </CharString>
        <CharString name="decyrillic">
          69 12 callsubr
        </CharString>
        <CharString name="decyrillic.1">
          -34 1048 405 rmoveto
          33 181 rlineto
          492 86 -143 394 -438 hhcurveto
          -79 -81 -12 -30 -75 hvcurveto
          -36 -197 rlineto
          33 88 74 12 78 hhcurveto
          249 84 -192 -224 10 hvcurveto
          -7 1 rlineto
          67 -43 -85 81 -172 hhcurveto
          -222 -173 -141 -235 -46 hvcurveto
          -3 -10 -15 -87 -2 -12 rrcurveto
          -7 -37 -3 -36 -34 vvcurveto
          -270 181 -169 267 262 170 153 272 48 vhcurveto
          -421 434 rmoveto
          135 92 -89 -152 -29 -3 -33 -5 -30 hvcurveto
          -14 -75 rlineto
          -160 -29 -88 -103 -144 hhcurveto
          -148 -82 105 148 27 2 33 5 29 hvcurveto
          12 65 rlineto
          156 26 94 108 147 hhcurveto
          endchar
        </CharString>
        <CharString name="degree">
          -478 487 805 rmoveto
          162 127 127 162 162 -126 126 -163 -164 -127 -126 -162 -162 128 -127 163 hvcurveto
          -1 144 rmoveto
          -76 -65 67 78 78 64 66 77 78 63 -64 -80 -80 -64 -65 -77 hvcurveto
          endchar
        </CharString>
        <CharString name="deltagreek">
          -65 540 -18 rmoveto
          266 177 158 284 56 hvcurveto
          10 52 6 46 41 vvcurveto
          180 -72 117 -216 157 vhcurveto
          -116 78 -31 36 48 vvcurveto
          55 50 38 86 102 123 -38 -59 90 vhcurveto
          42 173 rlineto
          62 -74 -146 48 -156 hhcurveto
          -216 -121 -113 -155 -89 51 -68 96 -64 hvcurveto
          -2 -9 rlineto
          -2 hlineto
          -219 -10 -151 -164 -47 -246 rrcurveto
          -10 -52 -5 -44 -39 vvcurveto
          -293 198 -130 231 vhcurveto
          8 181 rmoveto
          -112 -107 65 168 29 4 43 10 52 hvcurveto
          206 37 101 82 129 hhcurveto
          124 105 -63 -174 -27 -5 -46 -8 -43 hvcurveto
          -204 -37 -95 -88 -146 hhcurveto
          endchar
        </CharString>
        <CharString name="dieresis">
          -200 478 1231 rmoveto
          -99 callgsubr
        </CharString>
        <CharString name="dieresisacutecmb">
          -149 1329 1 callgsubr
        </CharString>
        <CharString name="dieresisacutecmb.short">
          118 1752 -22 callgsubr
          endchar
        </CharString>
        <CharString name="dieresisbelowcmb">
          -295 -345 rmoveto
          -99 callgsubr
        </CharString>
        <CharString name="dieresiscaroncmb">
          128 19 callgsubr
        </CharString>
        <CharString name="dieresiscaroncmb.short">
          626 1945 19 callsubr
        </CharString>
        <CharString name="dieresiscmb">
          -17 1220 rmoveto
          -99 callgsubr
        </CharString>
        <CharString name="dieresiscmb.short">
          -80 14 callgsubr
          endchar
        </CharString>
        <CharString name="dieresisgravecmb">
          -158 27 callgsubr
        </CharString>
        <CharString name="dieresisgravecmb.short">
          -80 1945 rmoveto
          240 -193 rlineto
          174 hlineto
          -199 193 rlineto
          -215 -366 -101 callsubr
          endchar
        </CharString>
        <CharString name="dieresismacroncmb">
          510 1595 -46 callgsubr
        </CharString>
        <CharString name="dieresismacroncmb.short">
          568 1904 -23 callsubr
        </CharString>
        <CharString name="dieresistonosgreek">
          21 360 1331 -38 callgsubr
        </CharString>
        <CharString name="divide">
          -29 506 961 31 callsubr
        </CharString>
        <CharString name="divide.uc">
          -29 522 1117 31 callsubr
        </CharString>
        <CharString name="djecyrillic">
          42 780 -29 rmoveto
          -98 92 callgsubr
          -30 -27 4 5 -20 hvcurveto
          -35 -181 rlineto
          -6 23 50 -7 36 hhcurveto
          237 123 108 237 41 hvcurveto
          105 590 rlineto
          11 69 10 61 54 vvcurveto
          177 -108 149 -218 -149 -106 -69 -115 -54 vhcurveto
          -14 hlineto
          50 274 rlineto
          222 hlineto
          26 147 95 callgsubr
          23 126 -32 callgsubr
          -22 -126 rlineto
          -130 hlineto
          -25 -147 rlineto
          129 hlineto
          -205 -1164 77 callgsubr
          107 604 rlineto
          158 28 93 126 159 hhcurveto
          133 51 -87 -106 -41 -7 -51 -5 -26 hvcurveto
          endchar
        </CharString>
        <CharString name="dlinebelow">
          18 -96 callgsubr
          -83 -968 -78 callgsubr
        </CharString>
        <CharString name="dollar">
          -29 391 -129 rmoveto
          128 hlineto
          24 110 rlineto
          -2 11 12 0 12 hhcurveto
          292 219 146 265 hvcurveto
          1 216 -145 83 -186 74 -8 3 -27 11 -4 1 96 427 rcurveline
          82 -29 65 -63 8 -85 rrcurveto
          -8 0 -8 -7 vvcurveto
          177 hlineto
          3 0 17 5 vvcurveto
          183 -126 115 -169 42 vhcurveto
          32 143 rlineto
          -129 hlineto
          -28 -124 rlineto
          1 -5 -22 0 -5 hhcurveto
          -259 -216 -142 -247 -196 142 -101 149 -62 hvcurveto
          10 -4 26 -10 10 -4 -102 -460 rcurveline
          -109 33 -68 84 86 vvcurveto
          4 1 5 1 5 vhcurveto
          -189 hlineto
          -1 -11 0 -13 -11 vvcurveto
          -165 119 -138 209 -46 vhcurveto
          472 368 rmoveto
          -139 -127 -83 -171 vhcurveto
          -14 hlineto
          97 439 4 -2 4 -1 3 -1 rlinecurve
          119 -46 85 -55 -112 vvcurveto
          -466 651 rmoveto
          141 135 70 123 vhcurveto
          9 hlineto
          -90 -404 -5 2 -5 2 -4 2 rlinecurve
          -104 45 -59 51 91 vvcurveto
          endchar
        </CharString>
        <CharString name="dotaccent">
          -200 549 1394 rmoveto
          -82 60 -54 75 75 60 54 82 82 -59 55 -76 -75 -60 -54 -83 vhcurveto
          endchar
        </CharString>
        <CharString name="dotaccentcmb">
          61 1363 -69 callsubr
        </CharString>
        <CharString name="dotaccentcmb.short">
          96 1603 -75 callsubr
        </CharString>
        <CharString name="dotbelowcmb">
          -226 36 callsubr
          endchar
        </CharString>
        <CharString name="dotlessi">
          -28 callgsubr
          endchar
        </CharString>
        <CharString name="dotlessj">
          -602 530 1058 rmoveto
          55 callgsubr
          endchar
        </CharString>
        <CharString name="dotmacroncmb">
          516 1595 rmoveto
          23 131 rlineto
          -612 hlineto
          -23 -131 rlineto
          147 -251 -69 callsubr
        </CharString>
        <CharString name="dotmacroncmb.short">
          93 1574 23 callsubr
        </CharString>
        <CharString name="dzecyrillic">
          -126 208 -99 callsubr
          endchar
        </CharString>
        <CharString name="dzhecyrillic">
          24 447 hmoveto
          -50 -285 rlineto
          195 hlineto
          50 285 rlineto
          342 20 callsubr
          94 callgsubr
          rlineto
          -433 hlineto
          156 878 rlineto
          -224 -20 callgsubr
          endchar
        </CharString>
        <CharString name="e">
          -83 545 -18 -5 callsubr
        </CharString>
        <CharString name="eacute">
          -83 545 -18 -106 callsubr
          -255 601 -72 callsubr
        </CharString>
        <CharString name="ebreve">
          -83 545 -18 -106 callsubr
          -387 883 -76 callgsubr
          endchar
        </CharString>
        <CharString name="ecaron">
          -83 545 -18 -106 callsubr
          253 962 -72 callgsubr
        </CharString>
        <CharString name="ecedilla">
          -83 -33 callsubr
          endchar
        </CharString>
        <CharString name="ecedillabreve">
          -81 -33 callsubr
          -13 1995 -76 callgsubr
          endchar
        </CharString>
        <CharString name="ecircumflex">
          -83 545 -18 -106 callsubr
          -456 601 -73 callsubr
          endchar
        </CharString>
        <CharString name="ecircumflexacute">
          -83 545 -18 -106 callsubr
          -466 601 -27 callgsubr
        </CharString>
        <CharString name="ecircumflexbelow">
          -83 545 -18 -106 callsubr
          -739 -1031 -62 callsubr
          endchar
        </CharString>
        <CharString name="ecircumflexdotbelow">
          -83 545 -18 -106 callsubr
          -456 601 -73 callsubr
          -316 -1825 -93 callgsubr
        </CharString>
        <CharString name="ecircumflexgrave">
          -83 545 -18 -106 callsubr
          -466 601 -29 callgsubr
        </CharString>
        <CharString name="ecircumflexhookabove">
          -83 545 -18 -106 callsubr
          -466 601 -56 callsubr
        </CharString>
        <CharString name="ecircumflextilde">
          -83 545 -18 -106 callsubr
          -460 601 -57 callsubr
        </CharString>
        <CharString name="ecyrillic">
          -115 -6 callgsubr
          endchar
        </CharString>
        <CharString name="edblgrave">
          -83 545 -18 -106 callsubr
          -210 601 -40 callgsubr
        </CharString>
        <CharString name="edieresis">
          -83 545 -18 -106 callsubr
          -297 593 rmoveto
          -99 callgsubr
        </CharString>
        <CharString name="edotaccent">
          -83 545 -18 -106 callsubr
          -219 736 -69 callsubr
        </CharString>
        <CharString name="edotbelow">
          -83 545 -18 -106 callsubr
          -471 -860 -93 callgsubr
        </CharString>
        <CharString name="efcyrillic">
          311 520 -351 rmoveto
          211 hlineto
          58 328 rlineto
          2 10 13 -3 11 hhcurveto
          304 3 222 130 62 315 15 71 rcurveline
          9 42 4 41 38 vvcurveto
          249 -167 173 -290 32 vhcurveto
          49 278 rlineto
          -211 hlineto
          -48 -272 rlineto
          1 -12 -13 0 -11 hhcurveto
          -300 -3 -224 -130 -63 -315 -14 -71 rcurveline
          -9 -43 -4 -42 -39 vvcurveto
          1 -248 166 -171 290 -33 rrcurveto
          33 180 rmoveto
          -194 31 -78 91 -1 148 rrcurveto
          34 4 37 6 38 vhcurveto
          8 44 39 228 147 73 163 6 rlinecurve
          1 12 13 0 12 hhcurveto
          205 -4 rmoveto
          196 -31 78 -91 -149 vvcurveto
          -1 -34 -3 -35 -7 -38 -7 -45 rcurveline
          -39 -230 -148 -72 -165 -5 -12 -1 -11 0 -12 1 rrcurveto
          endchar
        </CharString>
        <CharString name="egrave">
          -83 545 -18 -106 callsubr
          -13 601 -35 callsubr
        </CharString>
        <CharString name="ehookabove">
          -83 545 -18 -106 callsubr
          -252 824 -65 callsubr
        </CharString>
        <CharString name="eight">
          39 889 -19 callgsubr
        </CharString>
        <CharString name="eight.dnum">
          -362 580 441 -59 callgsubr
        </CharString>
        <CharString name="eight.numr">
          -362 668 938 -59 callgsubr
        </CharString>
        <CharString name="eight.subs">
          -362 512 58 -59 callgsubr
        </CharString>
        <CharString name="eight.sups">
          -395 738 1321 -59 callgsubr
        </CharString>
        <CharString name="eight.tnum">
          -29 852 -19 callgsubr
        </CharString>
        <CharString name="einvertedbreve">
          -83 545 -18 -106 callsubr
          182 605 -56 callgsubr
        </CharString>
        <CharString name="elcyrillic">
          -21 294 668 -39 callsubr
        </CharString>
        <CharString name="ellipsis">
          424 1131 139 rmoveto
          -94 70 -64 88 64 callsubr
          -523 hmoveto
          46 callsubr
          -522 hmoveto
          46 callsubr
          endchar
        </CharString>
        <CharString name="emacron">
          -83 545 -18 -106 callsubr
          183 623 -78 callgsubr
        </CharString>
        <CharString name="emacronacute">
          -83 545 -18 -106 callsubr
          -195 907 35 callsubr
        </CharString>
        <CharString name="emacrongrave">
          -83 545 -18 -106 callsubr
          -166 907 35 callgsubr
        </CharString>
        <CharString name="emcyrillic">
          305 435 27 callsubr
        </CharString>
        <CharString name="emdash">
          848 2062 458 119 callgsubr
          -2048 86 callsubr
        </CharString>
        <CharString name="emdash.uc">
          848 1974 600 rmoveto
          35 207 rlineto
          -1822 hlineto
          -34 -207 rlineto
          endchar
        </CharString>
        <CharString name="emquad">
          848 endchar
        </CharString>
        <CharString name="emspace">
          741 endchar
        </CharString>
        <CharString name="encyrillic">
          34 770 hmoveto
          -36 callsubr
        </CharString>
        <CharString name="endash">
          16 1230 458 rmoveto
          34 208 rlineto
          -1215 86 callsubr
        </CharString>
        <CharString name="endash.uc">
          16 1142 599 119 callgsubr
          -990 86 callsubr
        </CharString>
        <CharString name="enquad">
          -176 endchar
        </CharString>
        <CharString name="enspace">
          21 endchar
        </CharString>
        <CharString name="eogonek">
          -82 524 -16 rmoveto
          41 1 51 18 15 10 7 -8 rcurveline
          -62 -41 -68 -63 -6 -98 rrcurveto
          -116 -8 89 -75 119 hhcurveto
          69 44 13 8 20 hvcurveto
          24 141 rlineto
          -6 -24 -35 -4 -23 hhcurveto
          -58 -48 34 64 9 hvcurveto
          9 88 80 54 70 66 72 63 54 51 22 104 rrcurveto
          -215 hlineto
          -68 -20 -75 -54 -118 hhcurveto
          -165 -62 109 116 30 4 36 5 20 hvcurveto
          681 hlineto
          6 30 19 111 7 vvcurveto
          225 24 -122 226 -308 hhcurveto
          -244 -194 -139 -264 -45 hvcurveto
          -24 -126 rlineto
          -7 -40 -9 -57 -56 vvcurveto
          -275 169 -137 237 2 vhcurveto
          309 643 rmoveto
          -464 hlineto
          13 57 rlineto
          145 32 104 68 118 hhcurveto
          155 68 -113 -134 136 callgsubr
        </CharString>
        <CharString name="epsilongreek">
          -73 534 -18 2 callgsubr
          endchar
        </CharString>
        <CharString name="epsilontonosgreek">
          -76 534 -19 2 callgsubr
          62 1235 -28 callsubr
        </CharString>
        <CharString name="equal">
          -29 1008 245 69 callsubr
        </CharString>
        <CharString name="equal.dnum">
          -390 678 182 12 callgsubr
        </CharString>
        <CharString name="equal.numr">
          -355 778 679 12 callgsubr
        </CharString>
        <CharString name="equal.subs">
          -355 627 -176 12 callgsubr
        </CharString>
        <CharString name="equal.sups">
          -401 836 1062 12 callgsubr
        </CharString>
        <CharString name="equal.uc">
          -29 1040 418 69 callsubr
        </CharString>
        <CharString name="ercyrillic">
          31 679 -82 callsubr
          endchar
        </CharString>
        <CharString name="ereversedcyrillic">
          -87 callsubr
          endchar
        </CharString>
        <CharString name="escyrillic">
          -115 119 397 -88 callgsubr
          endchar
        </CharString>
        <CharString name="etagreek">
          1 callsubr
          endchar
        </CharString>
        <CharString name="etatonosgreek">
          1 callsubr
          274 455 -28 callsubr
        </CharString>
        <CharString name="eth">
          6 1045 396 rmoveto
          47 250 rlineto
          7 35 8 71 38 vvcurveto
          13 178 -37 166 -72 131 204 45 rcurveline
          -25 117 -251 -60 -49 71 -53 64 -72 52 rlinecurve
          -200 -66 55 -48 59 -61 55 -71 rlinecurve
          -239 -55 20 -121 292 70 45 -72 34 -96 2 -79 rlinecurve
          3 -9 1 -55 1 -7 -8 1 rcurveline
          64 -41 -86 80 -164 hhcurveto
          -217 -180 -139 -235 -45 hvcurveto
          -1 -3 -18 -92 -2 -17 rrcurveto
          -9 -47 -3 -41 -35 vvcurveto
          -265 178 -177 273 278 154 190 228 43 vhcurveto
          -417 457 rmoveto
          135 92 -88 -153 -28 -3 -34 -6 -30 hvcurveto
          -14 -87 rlineto
          -160 -28 -89 -103 -145 hhcurveto
          -148 -82 105 148 27 3 32 5 30 hvcurveto
          12 77 rlineto
          156 26 95 108 147 hhcurveto
          endchar
        </CharString>
        <CharString name="etilde">
          -83 545 -18 -106 callsubr
          1 590 -93 callsubr
          endchar
        </CharString>
        <CharString name="etildebelow">
          -83 545 -18 -106 callsubr
          -248 -1067 -60 callgsubr
          endchar
        </CharString>
</ttFont>
